<svg width="32" height="35" viewBox="0 0 32 35" fill="none" xmlns="http://www.w3.org/2000/svg">
<path d="M22.5 7.5H21.5V9H22.5V7.5Z" fill="#B3C2C6"/>
<path d="M25 10H21V8.5L25 9V10Z" fill="#302C3B"/>
<path d="M10.5 7.5H9.5V9H10.5V7.5Z" fill="#B3C2C6"/>
<path d="M22.746 6.412C20.4215 6.412 18.7675 5 16.001 5C13.234 5 11.5815 6.412 9.25501 6.412C8.94801 6.412 8.88601 8 9.25501 8C11.5815 8 13.234 6.588 16.001 6.588C18.7675 6.588 20.4215 8 22.746 8C23.1165 8 23.0535 6.412 22.746 6.412Z" fill="#94553C"/>
<path d="M7 10H11V8.5L7 9V10Z" fill="#302C3B"/>
<path d="M30.773 31.1775C30.773 32.1835 29.9595 33 28.9575 33H3.04304C2.04054 33 1.22754 32.1835 1.22754 31.1775V12.085H30.773V31.1775Z" fill="url(#paint0_linear)"/>
<path d="M1 11.349C1 10.3275 1.825 9.5 2.844 9.5H29.1565C30.174 9.5 31 10.3275 31 11.349V19.795C28.632 22.284 3.479 22.382 1 19.795V11.349Z" fill="#A86144"/>
<path d="M18 21.25H14V22.5H18V21.25Z" fill="#4E5E67"/>
<path d="M18.2505 22H13.75V24.5H18.2505V22Z" fill="url(#paint1_radial)"/>
<path d="M17.5005 22.75H14.5V24.5H17.5005V22.75Z" fill="#4E5E67"/>
<path d="M17.25 23H14.75V25H17.25V23Z" fill="url(#paint2_radial)"/>
<path d="M18.2505 20.75H13.75V21.75H18.2505V20.75Z" fill="url(#paint3_radial)"/>
<path d="M29 10H3C2.0525 10 1.5975 10.5715 1.5 11.5V15.5H30.5V11.5C30.4025 10.5715 29.9475 10 29 10Z" fill="url(#paint4_linear)"/>
<defs>
<linearGradient id="paint0_linear" x1="16.0003" y1="33" x2="16.0003" y2="12.0852" gradientUnits="userSpaceOnUse">
<stop offset="0.4606" stop-color="#94553C"/>
<stop offset="1" stop-color="#42261B"/>
</linearGradient>
<radialGradient id="paint1_radial" cx="0" cy="0" r="1" gradientUnits="userSpaceOnUse" gradientTransform="translate(16.297 23.05) scale(1.49416 8.36428)">
<stop offset="0.5636" stop-color="#E0E0E0"/>
<stop offset="0.6627" stop-color="#D5D7D8"/>
<stop offset="1" stop-color="#B3BBBF"/>
</radialGradient>
<radialGradient id="paint2_radial" cx="0" cy="0" r="1" gradientUnits="userSpaceOnUse" gradientTransform="translate(16.1648 23.8392) scale(0.825326 4.90547)">
<stop offset="0.5636" stop-color="#E0E0E0"/>
<stop offset="0.6627" stop-color="#D5D7D8"/>
<stop offset="1" stop-color="#B3BBBF"/>
</radialGradient>
<radialGradient id="paint3_radial" cx="0" cy="0" r="1" gradientUnits="userSpaceOnUse" gradientTransform="translate(16.297 21.1683) scale(1.45362 6.44119)">
<stop offset="0.5636" stop-color="#E0E0E0"/>
<stop offset="0.6627" stop-color="#D5D7D8"/>
<stop offset="1" stop-color="#B3BBBF"/>
</radialGradient>
<linearGradient id="paint4_linear" x1="16.0002" y1="15.5" x2="16.0002" y2="10" gradientUnits="userSpaceOnUse">
<stop offset="0.3879" stop-color="#C77350" stop-opacity="0"/>
<stop offset="1" stop-color="#D48361"/>
</linearGradient>
</defs>
</svg>
