<svg width="32" height="32" viewBox="0 0 32 32" fill="none" xmlns="http://www.w3.org/2000/svg">
<path d="M3.5 22H28.5V7.552C28.5 7.2465 28.2695 7 27.986 7H4.014C3.73 7 3.5 7.2465 3.5 7.552V22Z" fill="#302C3B"/>
<path d="M27.25 8.25H4.75V20.75H27.25V8.25Z" fill="url(#paint0_linear)"/>
<path d="M16.198 7.62487C16.198 7.88887 15.803 7.88887 15.803 7.62487C15.8025 7.36137 16.198 7.36137 16.198 7.62487Z" fill="#4E5E67"/>
<path d="M28.5 22H3.5L1 30.5195H31L28.5 22Z" fill="#CFD8DD"/>
<path d="M1 30.5195C1 31.16 31 31.16 31 30.5195H1Z" fill="#4E5E67"/>
<path d="M6.65397 24.9314H3.91797L4.08997 24.2749H6.78647L6.65397 24.9314Z" fill="#6E8189"/>
<path d="M6.25654 26.9026H3.40454L3.57504 26.2451H6.38854L6.25654 26.9026Z" fill="#6E8189"/>
<path d="M5.96004 23.9465H4.17554L4.34654 23.29H6.10554L5.96004 23.9465Z" fill="#6E8189"/>
<path d="M8.19149 23.9465H6.40649L6.54549 23.29H8.30449L8.19149 23.9465Z" fill="#6E8189"/>
<path d="M8.93287 24.9314H7.10938L7.23537 24.2749H9.03288L8.93287 24.9314Z" fill="#6E8189"/>
<path d="M8.63245 26.9026H6.73145L6.85745 26.2451H8.73245L8.63245 26.9026Z" fill="#6E8189"/>
<path d="M11.0089 26.9026H9.10791L9.20141 26.2451H11.0769L11.0089 26.9026Z" fill="#6E8189"/>
<path d="M20.9909 26.9026H11.4844L11.5459 26.2451H20.9229L20.9909 26.9026Z" fill="#6E8189"/>
<path d="M11.2129 24.9314H9.38892L9.48292 24.2749H11.2804L11.2129 24.9314Z" fill="#6E8189"/>
<path d="M13.4925 24.9314H11.6685L11.73 24.2749H13.5285L13.4925 24.9314Z" fill="#6E8189"/>
<path d="M15.7715 24.9314H13.948L13.9775 24.2749H15.7755L15.7715 24.9314Z" fill="#6E8189"/>
<path d="M18.0521 24.9314H16.2286L16.2246 24.2749H18.0226L18.0521 24.9314Z" fill="#6E8189"/>
<path d="M20.3314 24.9314H18.5079L18.4714 24.2749H20.2699L20.3314 24.9314Z" fill="#6E8189"/>
<path d="M21.3546 25.9172H19.4921L19.4436 25.2607H21.2806L21.3546 25.9172Z" fill="#6E8189"/>
<path d="M23.3676 26.9026H21.4666L21.3921 26.2451H23.2676L23.3676 26.9026Z" fill="#6E8189"/>
<path d="M19.0269 25.9172H17.1639L17.1479 25.2607H18.9849L19.0269 25.9172Z" fill="#6E8189"/>
<path d="M16.6979 25.9172H14.8359L14.8524 25.2607H16.6884L16.6979 25.9172Z" fill="#6E8189"/>
<path d="M14.3698 25.9172H12.5078L12.5563 25.2607H14.3923L14.3698 25.9172Z" fill="#6E8189"/>
<path d="M12.0427 25.9172H10.1797L10.2607 25.2607H12.0977L12.0427 25.9172Z" fill="#6E8189"/>
<path d="M9.71456 25.9172H7.85156L7.96506 25.2607H9.80206L9.71456 25.9172Z" fill="#6E8189"/>
<path d="M7.38563 25.9172H3.66113L3.83263 25.2607H7.50613L7.38563 25.9172Z" fill="#6E8189"/>
<path d="M10.4227 23.9465H8.6377L8.7442 23.29H10.5032L10.4227 23.9465Z" fill="#6E8189"/>
<path d="M12.6534 23.9465H10.8684L10.9429 23.29H12.7019L12.6534 23.9465Z" fill="#6E8189"/>
<path d="M14.8851 23.9465H13.0996L13.1416 23.29H14.9006L14.8851 23.9465Z" fill="#6E8189"/>
<path d="M17.1156 23.9465H15.3306L15.3406 23.29H17.0996L17.1156 23.9465Z" fill="#6E8189"/>
<path d="M19.3466 23.9465H17.5621L17.5396 23.29H19.2981L19.3466 23.9465Z" fill="#6E8189"/>
<path d="M17.9646 22.9622H16.2191L16.2156 22.3047H17.9356L17.9646 22.9622Z" fill="#6E8189"/>
<path d="M22.611 24.9314H20.787L20.7195 24.2749H22.517L22.611 24.9314Z" fill="#6E8189"/>
<path d="M24.8905 24.9314H23.067L22.967 24.2749H24.7645L24.8905 24.9314Z" fill="#6E8189"/>
<path d="M23.6825 25.9172H21.8205L21.7395 25.2607H23.576L23.6825 25.9172Z" fill="#6E8189"/>
<path d="M25.7441 26.9026H23.8431L23.7366 26.2451H25.6121L25.7441 26.9026Z" fill="#6E8189"/>
<path d="M28.0819 24.9314H25.3464L25.2139 24.2749H27.9099L28.0819 24.9314Z" fill="#6E8189"/>
<path d="M28.3389 25.9172H24.1484L24.0349 25.2607H28.1674L28.3389 25.9172Z" fill="#6E8189"/>
<path d="M21.5775 23.9465H19.793L19.738 23.29H21.497L21.5775 23.9465Z" fill="#6E8189"/>
<path d="M23.8085 23.9465H22.024L21.9365 23.29H23.6955L23.8085 23.9465Z" fill="#6E8189"/>
<path d="M27.8245 23.9465H24.255L24.1355 23.29H27.6535L27.8245 23.9465Z" fill="#6E8189"/>
<path d="M28.5956 26.9026H26.2196L26.0811 26.2451H28.4251L28.5956 26.9026Z" fill="#6E8189"/>
<path d="M27.5674 22.9622H24.9489L24.8164 22.3047H27.3964L27.5674 22.9622Z" fill="#6E8189"/>
<path d="M24.5125 22.9622H22.7665L22.666 22.3047H24.386L24.5125 22.9622Z" fill="#6E8189"/>
<path d="M22.3296 22.9622H20.5841L20.5156 22.3047H22.2361L22.3296 22.9622Z" fill="#6E8189"/>
<path d="M20.1475 22.9622H18.401L18.365 22.3047H20.086L20.1475 22.9622Z" fill="#6E8189"/>
<path d="M15.7816 22.9622H14.0361L14.0651 22.3047H15.7846L15.7816 22.9622Z" fill="#6E8189"/>
<path d="M13.5995 22.9622H11.8525L11.914 22.3047H13.635L13.5995 22.9622Z" fill="#6E8189"/>
<path d="M11.4159 22.9622H9.67041L9.76391 22.3047H11.4844L11.4159 22.9622Z" fill="#6E8189"/>
<path d="M9.23354 22.9622H7.48804L7.61454 22.3047H9.33404L9.23354 22.9622Z" fill="#6E8189"/>
<path d="M7.05212 22.9622H4.43262L4.60362 22.3047H7.18412L7.05212 22.9622Z" fill="#6E8189"/>
<path d="M19.9239 29.9487C19.9344 30.0652 19.8399 30.1612 19.7149 30.1612H12.2839C12.1589 30.1612 12.0649 30.0657 12.0749 29.9487L12.2859 27.4737C12.2964 27.3567 12.4069 27.2612 12.5314 27.2612H19.4674C19.5924 27.2612 19.7029 27.3562 19.7124 27.4737L19.9239 29.9487Z" fill="#99A8AE"/>
<path d="M15.4759 21.1261L15.5219 21.1731C15.5229 21.1741 15.5234 21.1751 15.5234 21.1761C15.5234 21.1781 15.5229 21.1791 15.5219 21.1801L15.4759 21.2266C15.4744 21.2271 15.4729 21.2281 15.4719 21.2281C15.4709 21.2281 15.4699 21.2271 15.4684 21.2266L15.4219 21.1801C15.4199 21.1781 15.4199 21.1751 15.4219 21.1731L15.4684 21.1261C15.4704 21.1246 15.4739 21.1246 15.4759 21.1261Z" fill="#B3C2C6"/>
<path d="M16.1915 21.2569C16.26 21.2569 16.3175 21.3149 16.3175 21.3899C16.3175 21.4654 16.26 21.5234 16.1915 21.5234C16.152 21.5234 16.122 21.5074 16.1025 21.4804V21.6069C16.103 21.6104 16.1015 21.6134 16.0995 21.6154C16.097 21.6179 16.0945 21.6194 16.091 21.6184H16.0595C16.056 21.6194 16.0525 21.6179 16.0505 21.6154C16.048 21.6134 16.0475 21.6104 16.048 21.6069V21.2759C16.0475 21.2719 16.048 21.2689 16.0505 21.2669C16.0525 21.2649 16.056 21.2634 16.0595 21.2639H16.091C16.0945 21.2634 16.097 21.2644 16.0995 21.2669C16.1015 21.2689 16.103 21.2719 16.103 21.2754V21.3004C16.122 21.2734 16.152 21.2569 16.1915 21.2569ZM16.1825 21.4709C16.228 21.4709 16.2625 21.4374 16.2625 21.3899C16.2625 21.3429 16.228 21.3094 16.1825 21.3094C16.1365 21.3094 16.103 21.3424 16.103 21.3894C16.103 21.4369 16.1365 21.4709 16.1825 21.4709ZM16.3605 21.5169C16.357 21.5169 16.3535 21.5159 16.3515 21.5139C16.349 21.5114 16.3485 21.5084 16.349 21.5049V21.2749C16.3485 21.2714 16.349 21.2684 16.3515 21.2664C16.3535 21.2639 16.357 21.2629 16.3605 21.2634H16.392C16.3945 21.2629 16.398 21.2639 16.4005 21.2664C16.4025 21.2684 16.404 21.2714 16.4035 21.2749V21.5054C16.404 21.5084 16.4025 21.5114 16.4005 21.5139C16.398 21.5164 16.3945 21.5174 16.392 21.5169H16.3605ZM16.638 21.5034C16.6435 21.5109 16.64 21.5169 16.63 21.5169H16.5975C16.5915 21.5169 16.587 21.5139 16.5835 21.5089L16.5345 21.4319L16.485 21.5089C16.482 21.5139 16.476 21.5169 16.4715 21.5169H16.4385C16.429 21.5169 16.426 21.5109 16.431 21.5034L16.505 21.3869L16.435 21.2774C16.43 21.2694 16.433 21.2639 16.4425 21.2639H16.4755C16.4815 21.2639 16.4865 21.2669 16.489 21.2719L16.534 21.3414L16.5785 21.2719C16.581 21.2669 16.587 21.2639 16.592 21.2639H16.625C16.634 21.2639 16.637 21.2699 16.633 21.2774L16.5625 21.3869L16.638 21.5034ZM16.7725 21.2569C16.8475 21.2569 16.8975 21.3184 16.8975 21.3909C16.8975 21.3954 16.8975 21.3999 16.8965 21.4034C16.8965 21.4064 16.8955 21.4094 16.8935 21.4114C16.8905 21.4134 16.8875 21.4144 16.8845 21.4139H16.696C16.7045 21.4559 16.735 21.4774 16.774 21.4774C16.7945 21.4774 16.815 21.4684 16.8285 21.4529C16.8315 21.4484 16.837 21.4459 16.842 21.4454H16.874C16.883 21.4454 16.887 21.4509 16.884 21.4579C16.8655 21.4989 16.8245 21.5239 16.7725 21.5239C16.6915 21.5239 16.639 21.4674 16.639 21.3904C16.6395 21.3154 16.693 21.2569 16.7725 21.2569ZM16.6965 21.3684H16.843C16.8355 21.3254 16.805 21.3069 16.7715 21.3069C16.7315 21.3064 16.703 21.3304 16.6965 21.3684ZM16.937 21.5169C16.9345 21.5169 16.931 21.5159 16.9285 21.5139C16.9265 21.5114 16.925 21.5084 16.9255 21.5049V21.1634C16.925 21.1599 16.9265 21.1569 16.9285 21.1544C16.931 21.1524 16.9345 21.1514 16.937 21.1514H16.9685C16.972 21.1514 16.9755 21.1524 16.9775 21.1544C16.98 21.1569 16.9805 21.1599 16.9805 21.1634V21.5049C16.9805 21.5084 16.98 21.5114 16.9775 21.5139C16.9755 21.5159 16.972 21.5169 16.9685 21.5169H16.937ZM17.0725 21.3344C17.0725 21.3859 17.213 21.3484 17.213 21.4454C17.213 21.4959 17.1695 21.5229 17.1135 21.5229C17.0615 21.5229 17.0205 21.4984 17.015 21.4504C17.015 21.4469 17.0155 21.4429 17.0175 21.4409C17.02 21.4384 17.0235 21.4369 17.027 21.4374H17.0585C17.065 21.4374 17.0685 21.4414 17.07 21.4479C17.0745 21.4654 17.092 21.4734 17.114 21.4734C17.141 21.4734 17.159 21.4634 17.159 21.4444C17.159 21.3939 17.0185 21.4299 17.0185 21.3334C17.0185 21.2839 17.0625 21.2559 17.114 21.2559C17.162 21.2559 17.202 21.2804 17.208 21.3289C17.209 21.3324 17.208 21.3354 17.2055 21.3384C17.203 21.3404 17.2 21.3419 17.197 21.3414H17.165C17.1585 21.3414 17.156 21.3374 17.1535 21.3309C17.1495 21.3134 17.133 21.3054 17.1145 21.3054C17.091 21.3054 17.0725 21.3154 17.0725 21.3344Z" fill="#B3C2C6"/>
<path d="M15.4865 21.2633C15.49 21.2628 15.493 21.2638 15.495 21.2663C15.498 21.2683 15.4985 21.2713 15.4985 21.2748V21.5268C15.4985 21.5933 15.467 21.6253 15.406 21.6248C15.4025 21.6253 15.399 21.6238 15.397 21.6213C15.395 21.6193 15.394 21.6163 15.394 21.6128V21.5828C15.394 21.5793 15.395 21.5763 15.397 21.5738C15.399 21.5718 15.4025 21.5703 15.406 21.5708C15.4315 21.5698 15.4435 21.5573 15.4435 21.5258V21.2748C15.443 21.2713 15.444 21.2683 15.446 21.2663C15.449 21.2638 15.4515 21.2628 15.455 21.2633H15.4865ZM15.6625 21.5228C15.5895 21.5228 15.5295 21.4633 15.5305 21.3893C15.5305 21.3163 15.59 21.2563 15.6635 21.2563C15.737 21.2563 15.7965 21.3158 15.7965 21.3893C15.797 21.4248 15.783 21.4593 15.7575 21.4843C15.7325 21.5098 15.6985 21.5238 15.6625 21.5228ZM15.6625 21.4698C15.695 21.4698 15.7245 21.4508 15.7375 21.4203C15.7495 21.3908 15.7435 21.3563 15.7205 21.3333C15.6975 21.3098 15.6635 21.3028 15.633 21.3158C15.603 21.3273 15.5835 21.3568 15.5835 21.3888C15.583 21.4103 15.591 21.4308 15.6055 21.4458C15.621 21.4623 15.641 21.4698 15.6625 21.4698ZM15.969 21.2728C15.9705 21.2668 15.9765 21.2628 15.982 21.2633H16.0165C16.0245 21.2633 16.028 21.2683 16.0255 21.2758L15.9115 21.6083C15.91 21.6143 15.904 21.6183 15.8985 21.6173H15.8645C15.8555 21.6173 15.852 21.6123 15.8545 21.6048L15.886 21.5133L15.792 21.2758C15.789 21.2678 15.7925 21.2633 15.801 21.2633H15.835C15.841 21.2623 15.8465 21.2663 15.848 21.2723L15.9125 21.4373L15.969 21.2728Z" fill="#B3C2C6"/>
<path d="M15.0281 21.2016C15.1286 21.2016 15.2091 21.2821 15.2091 21.3821C15.2091 21.4821 15.1286 21.5626 15.0281 21.5626C14.9286 21.5626 14.8481 21.4821 14.8481 21.3821C14.8481 21.2821 14.9281 21.2016 15.0281 21.2016ZM15.0281 21.1416C14.8951 21.1416 14.7876 21.2491 14.7876 21.3821C14.7876 21.5151 14.8956 21.6231 15.0281 21.6231C15.1621 21.6231 15.2696 21.5151 15.2696 21.3821C15.2696 21.3181 15.2441 21.2566 15.1986 21.2116C15.1541 21.1671 15.0926 21.1416 15.0281 21.1416Z" fill="#B3C2C6"/>
<path d="M15.076 21.4065C15.0725 21.407 15.0695 21.406 15.0665 21.4035C15.0645 21.401 15.0635 21.398 15.064 21.3945V21.37C15.0635 21.367 15.0645 21.3635 15.0665 21.361C15.0695 21.3585 15.0725 21.3575 15.076 21.358H15.1545C15.158 21.3575 15.1615 21.3585 15.164 21.361C15.166 21.3635 15.1675 21.367 15.1665 21.37V21.382C15.1665 21.438 15.133 21.489 15.0815 21.51C15.0295 21.5315 14.97 21.52 14.93 21.48C14.9275 21.478 14.9255 21.4745 14.9255 21.4715C14.9255 21.4675 14.9275 21.4645 14.93 21.4625L14.9555 21.4365C14.9575 21.434 14.961 21.4325 14.965 21.4325C14.9675 21.4325 14.971 21.434 14.973 21.4365C14.9925 21.456 15.0205 21.464 15.047 21.4575C15.073 21.451 15.0945 21.4315 15.103 21.4055H15.076V21.4065Z" fill="#B3C2C6"/>
<defs>
<linearGradient id="paint0_linear" x1="16.0003" y1="20.75" x2="16.0003" y2="8.25025" gradientUnits="userSpaceOnUse">
<stop stop-color="#4E5E67"/>
<stop offset="1" stop-color="#6E8189"/>
</linearGradient>
</defs>
</svg>
