<svg width="209" height="40" viewBox="0 0 209 40" fill="none" xmlns="http://www.w3.org/2000/svg">
<path d="M20 0C8.96296 0 0 8.96296 0 20C0 31.037 8.96296 40 20 40C31.037 40 40 31.037 40 20C40 8.96296 31.037 0 20 0ZM20 35.1111C11.6296 35.1111 4.81481 28.3704 4.81481 20C4.81481 11.6296 11.6296 4.81481 20 4.81481C28.3703 4.81481 35.1852 11.6296 35.1852 20C35.1111 28.3704 28.3703 35.1111 20 35.1111Z" fill="#F2F5F9"/>
<path d="M17.5558 22.889C18.9632 24.1482 21.0373 24.1482 22.3706 22.889V17.1112C20.9632 15.8519 18.8891 15.8519 17.5558 17.1112V22.889Z" fill="#F9C846"/>
<path d="M20.0005 9.70361C17.2597 9.70361 14.6671 10.8147 12.7412 12.7406L16.1486 16.148C18.2968 13.9999 21.7042 13.9999 23.8523 16.148L27.2597 12.7406C25.3338 10.8147 22.7412 9.70361 20.0005 9.70361Z" fill="#F9C846"/>
<path d="M23.8523 23.8518C21.7042 26 18.2968 26 16.1486 23.8518L12.7412 27.2592C16.7412 31.2592 23.2597 31.2592 27.2597 27.2592L23.8523 23.8518Z" fill="#F9C846"/>
<path d="M19.9962 39.9998C20.1443 37.6294 18.7369 35.4813 16.4406 34.7406C10.5147 33.2591 6.07027 28.4443 5.10731 22.4443H15.1814C14.3666 20.8887 14.3666 19.1109 15.1814 17.6294H5.10731C6.44064 9.33313 14.1443 3.77757 22.3666 5.03683C24.2925 5.33313 26.1443 5.9998 27.848 7.03683C29.9221 8.29609 32.6628 7.77758 34.1443 5.85165C26.3666 -1.92614 13.6999 -1.92614 5.84805 5.85165C-2.00379 13.6294 -2.00379 26.2961 5.84805 34.148C9.62583 37.8517 14.6629 39.9998 19.9962 39.9998Z" fill="#F9C846"/>
<path d="M54.889 17.4073V29.3332C54.1483 29.4814 53.4076 29.4814 52.6668 29.3332V17.4073H51.2594C51.1853 17.1851 51.1113 16.9629 51.1113 16.6666C51.1113 16.4443 51.1853 16.148 51.2594 15.9258H52.6668V14.2962C52.6668 11.8517 53.7039 10.4443 56.4446 10.4443C57.2594 10.4443 58.0001 10.5184 58.815 10.7406C58.9631 11.1851 58.9631 11.7036 58.815 12.148C58.2964 11.9999 57.7779 11.9258 57.1853 11.9258C55.4076 11.9258 54.9631 12.6666 54.9631 14.2962V15.9258H58.815C58.889 16.148 58.9631 16.4443 58.9631 16.6666C58.9631 16.8888 58.889 17.1851 58.815 17.4073H54.889Z" fill="#84848A"/>
<path d="M63.5556 17.7037C63.5556 17.7037 65.1852 15.8518 68.2963 15.8518C68.3704 16.074 68.3704 16.3703 68.3704 16.6666C68.3704 16.8888 68.3704 17.1851 68.2963 17.4074C66.3704 17.3333 64.5926 18.2963 63.5556 19.8518V29.3333C63.1852 29.4074 62.8149 29.4814 62.4445 29.4814C62.0741 29.4814 61.7037 29.4074 61.3334 29.3333V16.074C61.7037 16 62.0741 15.9259 62.4445 15.9259C62.8149 15.9259 63.1852 16 63.5556 16.074V17.7037Z" fill="#84848A"/>
<path d="M70.5186 20.1481C70.5186 17.4074 72 15.8518 75.926 15.8518C79.926 15.8518 81.1852 17.4074 81.1852 20.1481V23.1851C79.7778 23.3333 78.3704 23.4074 76.963 23.4074H72.7408V25.2592C72.7408 27.1851 73.5556 28.074 76.2963 28.074C79.1111 28.074 80.8148 27.1111 80.8148 27.1111C80.8889 27.3333 80.963 27.6296 80.963 27.8518C80.963 28.074 80.8889 28.3703 80.8148 28.5926C80.8148 28.5926 79.2593 29.5555 76.2963 29.5555C72.0741 29.5555 70.5186 28 70.5186 25.2592V20.1481ZM79.0371 21.9259V20.1481C79.0371 18.2222 78.2963 17.3333 75.8519 17.3333C73.4074 17.3333 72.6667 18.2222 72.6667 20.1481V21.9259H79.0371Z" fill="#84848A"/>
<path d="M84.1487 20.1481C84.1487 17.4074 85.6302 15.8518 89.5561 15.8518C93.5561 15.8518 94.8153 17.4074 94.8153 20.1481V23.1851C93.4079 23.3333 92.0005 23.4074 90.5931 23.4074H86.3709V25.2592C86.3709 27.1851 87.1857 28.074 89.9264 28.074C92.7412 28.074 94.4449 27.1111 94.4449 27.1111C94.5931 27.3333 94.5931 27.6296 94.5931 27.8518C94.5931 28.074 94.519 28.3703 94.4449 28.5926C94.4449 28.5926 92.8894 29.5555 89.9264 29.5555C85.7042 29.5555 84.1487 28 84.1487 25.2592V20.1481ZM92.7412 21.9259V20.1481C92.7412 18.2222 92.0005 17.3333 89.5561 17.3333C87.1116 17.3333 86.3709 18.2222 86.3709 20.1481V21.9259H92.7412Z" fill="#84848A"/>
<path d="M102.297 28C102.371 28.2222 102.371 28.4445 102.371 28.6667C102.371 28.8889 102.371 29.1111 102.297 29.3334C101.852 29.4815 101.408 29.5556 100.889 29.5556C98.8892 29.5556 98.1485 28.4445 98.1485 26.5185V10.7407C98.8892 10.5926 99.63 10.5926 100.371 10.7407V26.5926C100.371 27.6297 100.667 28.1482 101.63 28.1482C101.852 28.0741 102.074 28 102.297 28Z" fill="#84848A"/>
<path d="M112.815 28.222C112.815 28.222 111.185 29.4813 108.148 29.4813C105.482 29.4813 104.445 28.148 104.445 25.8517V25.4813C104.445 23.3332 105.778 22.148 109.259 21.7776L112.741 21.4072V19.9257C112.741 18.148 112 17.2591 109.704 17.2591C107.482 17.2591 106.741 18.0739 106.741 19.8517V20.222C106.37 20.2961 106.074 20.3702 105.704 20.3702C105.333 20.3702 104.963 20.2961 104.667 20.222V19.8517C104.667 17.2591 105.852 15.7776 109.778 15.7776C113.63 15.7776 115.037 17.2591 115.037 19.8517V29.2591C114.667 29.3332 114.296 29.4072 113.926 29.4072C113.556 29.4072 113.185 29.3332 112.815 29.2591V28.222ZM109.704 23.2591C107.482 23.4813 106.741 24.222 106.741 25.4813V25.9257C106.741 27.4072 107.259 28.0739 109.037 28.0739C111.778 28.0739 112.889 26.7406 112.889 26.7406V22.8887L109.704 23.2591Z" fill="#84848A"/>
<path d="M120.593 17.1111C120.593 17.1111 122.148 15.8518 125.111 15.8518C128.074 15.8518 129.111 17.4074 129.111 20.1481V29.3333C128.741 29.4074 128.371 29.4814 128 29.4814C127.63 29.4814 127.259 29.4074 126.889 29.3333V20.1481C126.889 18.2222 126.297 17.3333 124.371 17.3333C121.63 17.3333 120.593 18.6666 120.593 18.6666V29.3333C120.222 29.4074 119.852 29.4814 119.482 29.4814C119.111 29.4814 118.741 29.4074 118.371 29.3333V16.074C118.741 16 119.111 15.9259 119.482 15.9259C119.852 15.9259 120.222 16 120.593 16.074V17.1111Z" fill="#84848A"/>
<path d="M132.444 20.1481C132.444 17.4074 133.852 15.8518 137.704 15.8518C141.556 15.8518 142.815 17.4074 142.815 20.1481V20.5185C142.444 20.5925 142.148 20.6666 141.778 20.6666C141.407 20.6666 141.111 20.5925 140.815 20.5185V20.1481C140.815 18.2222 140.074 17.3333 137.778 17.3333C135.481 17.3333 134.741 18.2222 134.741 20.1481V25.3333C134.741 27.2592 135.555 28.1481 138.148 28.1481C140.815 28.1481 142.444 27.1851 142.444 27.1851C142.593 27.4074 142.593 27.7037 142.593 27.9259C142.593 28.1481 142.518 28.4444 142.444 28.6666C142.444 28.6666 140.963 29.6296 138.148 29.6296C134.074 29.6296 132.518 28.074 132.518 25.3333V20.1481H132.444Z" fill="#84848A"/>
<path d="M145.482 20.1481C145.482 17.4074 146.963 15.8518 150.889 15.8518C154.889 15.8518 156.148 17.4074 156.148 20.1481V23.1851C154.741 23.3333 153.334 23.4074 151.926 23.4074H147.704V25.2592C147.704 27.1851 148.519 28.074 151.26 28.074C154.074 28.074 155.778 27.1111 155.778 27.1111C155.852 27.3333 155.926 27.6296 155.926 27.8518C155.926 28.074 155.852 28.3703 155.778 28.5926C155.778 28.5926 154.223 29.5555 151.26 29.5555C147.037 29.5555 145.482 28 145.482 25.2592V20.1481ZM154.074 21.9259V20.1481C154.074 18.2222 153.334 17.3333 150.889 17.3333C148.445 17.3333 147.704 18.2222 147.704 20.1481V21.9259H154.074Z" fill="#84848A"/>
<path d="M161.704 17.1111C161.704 17.1111 163.259 15.8518 166.222 15.8518C169.185 15.8518 170.222 17.4073 170.222 20.1481V29.3333C169.852 29.4074 169.481 29.4814 169.111 29.4814C168.741 29.4814 168.37 29.4074 168 29.3333V20.1481C168 18.2222 167.407 17.3333 165.556 17.3333C162.815 17.3333 161.778 18.6666 161.778 18.6666V29.3333C161.407 29.4074 161.037 29.4814 160.667 29.4814C160.296 29.4814 159.926 29.4074 159.556 29.3333V10.7407C159.926 10.6666 160.296 10.5925 160.667 10.5925C161.037 10.5925 161.407 10.6666 161.778 10.7407V17.1111H161.704Z" fill="#84848A"/>
<path d="M182 28.2221C182 28.2221 180.445 29.4813 177.482 29.4813C174.593 29.4813 173.482 27.9258 173.482 25.185V16.0739C173.852 15.9999 174.222 15.9258 174.593 15.9258C174.963 15.9258 175.334 15.9999 175.704 16.0739V25.2591C175.704 27.185 176.297 28.0739 178.148 28.0739C180.889 28.0739 181.926 26.7406 181.926 26.7406V16.0739C182.296 15.9999 182.667 15.9258 183.037 15.9258C183.408 15.9258 183.778 15.9999 184.148 16.0739V29.3332C183.778 29.4073 183.408 29.4813 183.037 29.4813C182.667 29.4813 182.296 29.4073 181.926 29.3332L182 28.2221Z" fill="#84848A"/>
<path d="M189.704 17.1111C189.704 17.1111 191.26 15.8518 194.223 15.8518C197.185 15.8518 198.223 17.4074 198.223 20.1481V29.3333C197.482 29.4814 196.741 29.4814 196 29.3333V20.1481C196 18.2222 195.408 17.3333 193.482 17.3333C190.741 17.3333 189.704 18.6666 189.704 18.6666V29.3333C189.334 29.4074 188.963 29.4814 188.593 29.4814C188.222 29.4814 187.852 29.4074 187.482 29.3333V16.074C188.222 15.9259 188.963 15.9259 189.704 16.074V17.1111Z" fill="#84848A"/>
<path d="M204.667 17.4816V25.7038C204.667 27.3334 205.259 28.0742 206.963 28.0742C207.482 28.0742 208 28.0001 208.445 27.7779C208.593 28.2223 208.593 28.6668 208.445 29.1112C207.704 29.3334 206.963 29.4816 206.222 29.4816C203.482 29.4816 202.445 28.0742 202.445 25.6297V17.4816H201.037C200.963 17.2594 200.889 17.0371 200.889 16.7408C200.889 16.5186 200.963 16.2223 201.037 16.0001H202.519L202.741 13.4075C203.333 13.2593 204 13.2593 204.593 13.4075V16.0001H208.37C208.445 16.2223 208.519 16.5186 208.519 16.7408C208.519 16.9631 208.445 17.2594 208.37 17.4816H204.667Z" fill="#84848A"/>
</svg>
