<svg width="32" height="32" viewBox="0 0 32 32" fill="none" xmlns="http://www.w3.org/2000/svg">
<path d="M23.592 19.3924C24.132 19.7499 24.755 20.0164 25.4825 20.1529C24.1915 17.2084 26.139 11.0339 22.1485 6.49695C16.5235 6.66595 15.745 24.8579 23.586 22.4389C23.087 22.2219 22.7745 21.7809 22.591 21.2239C23.1955 21.3969 23.9015 21.4024 24.725 21.1499C24.0695 20.8669 23.7365 20.1989 23.592 19.3924Z" fill="#1E110E"/>
<path d="M9.47233 6.49744C5.48283 11.0344 7.80933 17.2089 6.51733 20.1534C7.24483 20.0169 7.86783 19.7499 8.40783 19.3929C8.26433 20.1994 7.93033 20.8674 7.27583 21.1509C8.09833 21.4039 8.80433 21.3979 9.40883 21.2249C9.22533 21.7814 8.91383 22.2229 8.41383 22.4399C16.2548 24.8584 15.0973 6.66644 9.47233 6.49744Z" fill="#1E110E"/>
<path d="M24.2057 12.6962C22.9352 12.8502 22.0182 17.1037 22.8172 18.2272C22.9287 18.3842 23.5837 18.6342 24.0692 17.6442C24.3377 17.0942 25.1142 16.6372 25.3532 15.5047C25.6617 14.0547 25.4692 12.5427 24.2057 12.6962Z" fill="#FFD8B4"/>
<path d="M7.79532 12.6962C9.06582 12.8502 9.98282 17.1037 9.18382 18.2272C9.07132 18.3842 8.41732 18.6342 7.93182 17.6442C7.66232 17.0942 6.88682 16.6372 6.64682 15.5047C6.33932 14.0547 6.53182 12.5427 7.79532 12.6962Z" fill="#FFD8B4"/>
<path d="M24.1725 13.5115C23.8415 13.616 23.479 14.121 23.283 14.9595C24.442 14.7105 24.152 16.6405 23.1455 16.6765C23.1545 16.871 23.168 17.071 23.1915 17.281C23.677 16.576 24.17 16.859 24.6585 15.811C25.097 14.8655 24.9925 13.2535 24.1725 13.5115Z" fill="#DEB38A"/>
<path d="M8.71826 14.9575C8.52176 14.1205 8.16176 13.615 7.83076 13.5115C7.00926 13.2535 6.90476 14.8655 7.34426 15.8115C7.83276 16.8595 8.32576 16.5765 8.81126 17.2815C8.83476 17.0705 8.84826 16.8705 8.85626 16.677C7.85976 16.629 7.57426 14.7225 8.71826 14.9575Z" fill="#DEB38A"/>
<path d="M15.9998 4.51697C10.4958 4.51697 7.84435 8.99947 8.17585 14.7635C8.24435 15.922 8.56635 17.594 8.96385 19.0265C9.78885 22.003 14.1453 25 15.9998 25C17.8543 25 22.2108 22.003 23.0358 19.0265C23.4343 17.594 23.7563 15.9225 23.8248 14.7635C24.1553 8.99997 21.5048 4.51697 15.9998 4.51697Z" fill="#FFD8B4"/>
<path d="M21.9803 12.2709C20.7213 11.6044 18.3123 11.5719 17.4148 12.0359C17.2223 12.1259 17.3503 12.7574 17.5113 12.6974C18.7613 12.2024 20.7788 12.1914 21.9498 12.7394C22.1063 12.8114 22.1708 12.3639 21.9803 12.2709Z" fill="#A88868"/>
<path d="M10.0204 12.2709C11.2794 11.6044 13.6864 11.5719 14.5849 12.0359C14.7774 12.1259 14.6504 12.7574 14.4894 12.6974C13.2364 12.2024 11.2219 12.1914 10.0499 12.7394C9.89442 12.8114 9.82992 12.3639 10.0204 12.2709Z" fill="#A88868"/>
<path d="M17.4856 18.0545C17.3291 17.944 16.9601 18.113 16.0001 18.113C15.0421 18.113 14.6731 17.944 14.5146 18.0545C14.3271 18.1865 14.6271 18.785 16.0001 18.785C17.3751 18.785 17.6751 18.1865 17.4856 18.0545Z" fill="#DEB38A"/>
<path d="M15.9997 20.3224C14.7622 19.9589 12.9272 20.4954 12.9272 20.4954C13.6262 21.2569 14.1382 22.2434 15.9997 22.2434C18.1327 22.2434 18.4957 21.1234 19.0727 20.4954C19.0727 20.4949 17.2372 19.9569 15.9997 20.3224Z" fill="#DEB38A"/>
<path d="M13.3884 20.624C14.6864 21.713 17.3074 21.7205 18.6119 20.624C17.2294 20.6835 14.7814 20.6845 13.3884 20.624Z" fill="white"/>
<path d="M14.7751 14.5427C14.8221 14.9072 14.5751 15.3392 13.8901 15.6627C13.4556 15.8687 12.5501 16.1112 11.3616 15.6092C10.8286 15.3852 10.3096 14.6847 10.3556 14.2982C11.0006 13.0837 14.1726 12.9057 14.7751 14.5427Z" fill="white"/>
<path d="M12.6242 15.7646C13.3123 15.7646 13.8702 15.2067 13.8702 14.5186C13.8702 13.8304 13.3123 13.2726 12.6242 13.2726C11.936 13.2726 11.3782 13.8304 11.3782 14.5186C11.3782 15.2067 11.936 15.7646 12.6242 15.7646Z" fill="url(#paint0_linear)"/>
<path d="M12.001 14.495C12.001 15.3575 13.247 15.3575 13.247 14.495C13.247 13.695 12.001 13.695 12.001 14.495Z" fill="#1A1626"/>
<path d="M11.8115 14.1461C11.8115 14.5076 12.334 14.5076 12.334 14.1461C12.334 13.8116 11.8115 13.8116 11.8115 14.1461Z" fill="#AB968C"/>
<path d="M14.7814 14.5909C14.2754 12.9649 10.8264 13.2049 10.3564 14.2984C10.5314 12.8979 14.3504 12.5284 14.7814 14.5909Z" fill="#DEB38A"/>
<path d="M17.2248 14.5427C17.1788 14.9072 17.4258 15.3392 18.1103 15.6627C18.5448 15.8687 19.4493 16.1112 20.6388 15.6092C21.1718 15.3852 21.6908 14.6847 21.6438 14.2982C21.0003 13.0837 17.8283 12.9057 17.2248 14.5427Z" fill="white"/>
<path d="M19.3485 15.7646C20.0367 15.7646 20.5945 15.2067 20.5945 14.5186C20.5945 13.8304 20.0367 13.2726 19.3485 13.2726C18.6604 13.2726 18.1025 13.8304 18.1025 14.5186C18.1025 15.2067 18.6604 15.7646 19.3485 15.7646Z" fill="url(#paint1_linear)"/>
<path d="M18.7263 14.495C18.7263 15.3575 19.9723 15.3575 19.9723 14.495C19.9723 13.695 18.7263 13.695 18.7263 14.495Z" fill="#1A1626"/>
<path d="M18.5369 14.1461C18.5369 14.5076 19.0594 14.5076 19.0594 14.1461C19.0594 13.8116 18.5369 13.8116 18.5369 14.1461Z" fill="#AB968C"/>
<path d="M17.2192 14.5909C17.7242 12.9654 21.1712 13.1979 21.6432 14.2984C21.4687 12.8979 17.6502 12.5284 17.2192 14.5909Z" fill="#DEB38A"/>
<path d="M16.0012 3C12.6517 3 10.9787 4.517 10.6387 5.2365C6.5897 6.1625 5.2872 12.9945 8.3182 15.909C8.6952 12.8035 9.0577 10.808 11.1217 8.7065C12.3257 10.32 14.8267 11.2275 17.0662 11.2275C16.0057 10.457 15.2832 9.702 14.7157 8.9985C18.4552 10.715 22.6432 11.8135 23.6827 15.909C27.2807 10.179 24.2922 3 16.0012 3Z" fill="url(#paint2_linear)"/>
<path d="M10.6302 5.23621C10.5902 7.44971 11.7222 10.2337 17.0687 11.2272C13.2442 11.4857 9.31972 9.17421 10.6302 5.23621Z" fill="#1E110E"/>
<path d="M10.8755 8.3064C9.483 9.6794 8.0075 12.2754 8.304 15.9089C8.5805 12.9064 9.9605 10.4339 11.2095 8.8324C11.1205 8.7359 10.9505 8.4154 10.8755 8.3064Z" fill="#1E110E"/>
<path d="M13.3525 7.61731C16.2345 10.3693 22.9395 9.38481 23.6965 15.9088C21.9035 10.2723 15.824 11.5368 13.3525 7.61731Z" fill="#1E110E"/>
<path d="M28.4932 19H3.50725C3.19475 19 2.96825 19.206 3.00425 19.458L4.57825 30.541C4.61375 30.793 4.89875 31 5.21025 31H26.7892C27.1017 31 27.3868 30.793 27.4223 30.541L28.9963 19.458C29.0322 19.206 28.8048 19 28.4932 19Z" fill="url(#paint3_linear)"/>
<path d="M16 23.8001C16.827 23.8001 17.5 24.3391 17.5 25.0001C17.5 25.6621 16.827 26.2001 16 26.2001C15.1735 26.2001 14.5 25.6621 14.5 25.0001C14.5 24.3391 15.1735 23.8001 16 23.8001ZM16 23.4006C14.896 23.4006 14 24.1166 14 25.0001C14 25.8836 14.896 26.6006 16 26.6006C17.1045 26.6006 18 25.8836 18 25.0001C18 24.1166 17.1045 23.4006 16 23.4006Z" fill="#E6EBEF"/>
<path d="M16.401 25.1602C16.3335 25.1602 16.3 25.1337 16.3 25.0812V24.9212C16.3 24.8667 16.3335 24.8402 16.401 24.8402H17.05C17.1175 24.8402 17.151 24.8667 17.151 24.9212V25.0002C17.151 25.5092 16.636 25.9212 16 25.9212C15.6915 25.9212 15.4015 25.8227 15.1875 25.6517C15.1395 25.6127 15.1395 25.5767 15.1865 25.5382L15.4 25.3682C15.447 25.3312 15.494 25.3312 15.5405 25.3682C15.6625 25.4647 15.8255 25.5207 16 25.5207C16.289 25.5207 16.534 25.3702 16.6195 25.1602H16.401Z" fill="#E6EBEF"/>
<defs>
<linearGradient id="paint0_linear" x1="12.6252" y1="15.7651" x2="12.6252" y2="13.2724" gradientUnits="userSpaceOnUse">
<stop stop-color="#A6694A"/>
<stop offset="1" stop-color="#4F2A1E"/>
</linearGradient>
<linearGradient id="paint1_linear" x1="19.3491" y1="15.7651" x2="19.3491" y2="13.2724" gradientUnits="userSpaceOnUse">
<stop stop-color="#A6694A"/>
<stop offset="1" stop-color="#4F2A1E"/>
</linearGradient>
<linearGradient id="paint2_linear" x1="15.9184" y1="15.909" x2="15.9184" y2="3" gradientUnits="userSpaceOnUse">
<stop stop-color="#1E110E"/>
<stop offset="0.2821" stop-color="#31211E"/>
<stop offset="0.7266" stop-color="#493632"/>
<stop offset="1" stop-color="#523E3A"/>
</linearGradient>
<linearGradient id="paint3_linear" x1="16.0005" y1="31" x2="16.0005" y2="19" gradientUnits="userSpaceOnUse">
<stop stop-color="#99A8AE"/>
<stop offset="0.9333" stop-color="#CFD8DD"/>
<stop offset="0.9818" stop-color="#E6EBEF"/>
</linearGradient>
</defs>
</svg>
