<svg width="32" height="16" viewBox="0 0 32 16" fill="none" xmlns="http://www.w3.org/2000/svg">
<g clip-path="url(#clip0)">
<path d="M0 14.8984C0 15.1911 0.110552 15.4718 0.307336 15.6788C0.50412 15.8857 0.771017 16.002 1.04931 16.002H30.9547C31.233 16.002 31.4999 15.8857 31.6967 15.6788C31.8934 15.4718 32.004 15.1911 32.004 14.8984V1.10359C32.004 0.810897 31.8934 0.530196 31.6967 0.323233C31.4999 0.11627 31.233 0 30.9547 0L1.04931 0C0.771017 0 0.50412 0.11627 0.307336 0.323233C0.110552 0.530196 0 0.810897 0 1.10359L0 14.8984Z" fill="url(#paint0_linear)"/>
<path d="M5.86038 12.6086V2.73486H8.90286C10.0555 2.73486 10.8074 2.78452 11.1573 2.8833C11.6951 3.03118 12.1452 3.35342 12.5083 3.85004C12.8714 4.3461 13.0529 4.98673 13.0529 5.77248C13.0529 6.37946 12.948 6.88876 12.7391 7.3015C12.5293 7.71535 12.2638 8.03925 11.9417 8.27487C11.619 8.51103 11.2916 8.66664 10.9585 8.74334C10.5057 8.83714 9.85039 8.8846 8.99258 8.8846H7.75649V12.6092H5.86038V12.6086ZM7.75649 4.40459V7.20715H8.79373C9.54084 7.20715 10.0403 7.15528 10.2927 7.05209C10.5445 6.94891 10.7418 6.78723 10.8855 6.56651C11.0282 6.3469 11.0996 6.09142 11.0996 5.79952C11.0996 5.43975 10.9989 5.14344 10.7984 4.91003C10.599 4.67723 10.3301 4.52272 10.0361 4.47191C9.80999 4.42776 9.35511 4.40459 8.67201 4.40459H7.75649V4.40459ZM16.3189 12.6086H14.5193V5.45631H16.1909V6.47326C16.4768 5.9932 16.7344 5.67647 16.9626 5.52363C17.1955 5.36977 17.4657 5.29022 17.7407 5.29463C18.151 5.29463 18.5455 5.41382 18.9259 5.65164L18.3687 7.3015C18.0654 7.09513 17.7837 6.99195 17.523 6.99195C17.2711 6.99195 17.0576 7.06478 16.8829 7.21046C16.7076 7.35668 16.5702 7.62099 16.47 8.00228C16.3692 8.38412 16.3189 9.18312 16.3189 10.4004V12.6098V12.6086ZM19.2842 8.9315C19.2842 8.30246 19.4317 7.69438 19.7265 7.10562C20.0054 6.5344 20.4417 6.06497 20.9783 5.75869C21.5187 5.44913 22.1221 5.29408 22.7879 5.29408C23.8162 5.29408 24.6598 5.64502 25.3172 6.348C25.9746 7.05099 26.3036 7.93882 26.3036 9.01206C26.3036 10.0941 25.9715 10.9913 25.3078 11.7032C24.6441 12.415 23.8078 12.7709 22.8005 12.7709C22.1809 12.7718 21.5699 12.6194 21.0166 12.3261C20.4665 12.0457 20.0148 11.5895 19.726 11.0228C19.4322 10.45 19.2842 9.75312 19.2842 8.9315ZM21.1289 9.03248C21.1289 9.74208 21.2889 10.285 21.6095 10.6625C21.9301 11.0399 22.3241 11.2281 22.7942 11.2281C23.2637 11.2281 23.6578 11.0393 23.9757 10.6625C24.2936 10.285 24.4531 9.73712 24.4531 9.01868C24.4531 8.31791 24.2936 7.77936 23.9757 7.40193C23.6578 7.02505 23.2637 6.83634 22.7942 6.83634C22.3241 6.83634 21.9295 7.02505 21.6095 7.40248C21.2895 7.77991 21.1289 8.32287 21.1289 9.03248Z" fill="white"/>
</g>
<defs>
<linearGradient id="paint0_linear" x1="16.002" y1="16.002" x2="16.002" y2="0" gradientUnits="userSpaceOnUse">
<stop stop-color="#F25600"/>
<stop offset="0.244" stop-color="#F35B00"/>
<stop offset="0.514" stop-color="#F76800"/>
<stop offset="0.796" stop-color="#FD7E00"/>
<stop offset="0.88" stop-color="#FF8600"/>
</linearGradient>
<clipPath id="clip0">
<rect width="32" height="16" rx="4" fill="white"/>
</clipPath>
</defs>
</svg>
