<svg width="32" height="36" viewBox="0 0 32 36" fill="none" xmlns="http://www.w3.org/2000/svg">
<path d="M23.1633 25.3261L21.3278 27.1621L18.8923 24.7286L20.7283 22.8926L23.1633 25.3261Z" fill="url(#paint0_linear)"/>
<path d="M23.5555 25.2736C23.766 25.4846 21.484 27.7666 21.273 27.5556L20.9345 27.2151C20.7245 27.0046 23.005 24.7236 23.2155 24.9341L23.5555 25.2736Z" fill="url(#paint1_linear)"/>
<path d="M18.8683 22.8661C22.5498 19.1846 22.5503 13.2131 18.8683 9.53062C15.1853 5.84762 9.21483 5.84812 5.53133 9.53062C1.84983 13.2136 1.84983 19.1851 5.53183 22.8666C9.21533 26.5501 15.1863 26.5491 18.8683 22.8661Z" fill="url(#paint2_radial)"/>
<path d="M4.2805 24.1183C8.6555 28.4923 15.7445 28.4933 20.119 24.1183C24.493 19.7453 24.493 12.6543 20.119 8.28031C15.746 3.90631 8.654 3.90681 4.2805 8.28031C-0.0939999 12.6548 -0.0929999 19.7458 4.2805 24.1183ZM5.702 22.6968C2.1145 19.1088 2.1135 13.2923 5.702 9.70281C9.2895 6.11531 15.1085 6.11531 18.696 9.70281C22.2835 13.2908 22.283 19.1093 18.696 22.6968C15.108 26.2863 9.2905 26.2848 5.702 22.6968Z" fill="url(#paint3_radial)"/>
<path d="M19.7224 8.67661C15.5679 4.52161 8.83087 4.52211 4.67637 8.67661C0.521365 12.8321 0.521865 19.5681 4.67637 23.7221C8.83287 27.8771 15.5664 27.8781 19.7224 23.7221C23.8769 19.5681 23.8774 12.8321 19.7224 8.67661ZM19.2094 23.2091C15.3379 27.0821 9.06186 27.0811 5.18987 23.2096C1.31987 19.3376 1.31887 13.0621 5.18987 9.18961C9.06037 5.31911 15.3389 5.31961 19.2089 9.18961C23.0799 13.0611 23.0799 19.3386 19.2094 23.2091Z" fill="url(#paint4_linear)"/>
<path d="M30.3345 30.977L26.978 34.334C26.978 34.334 22.3905 29.7475 20.908 28.2655C20.613 27.971 23.97 24.613 24.264 24.908C25.7335 26.377 30.3345 30.977 30.3345 30.977Z" fill="url(#paint5_linear)"/>
<path d="M14.3347 19.2452C17.5117 16.8427 18.4692 12.7582 16.4742 10.1267C14.4797 7.4892 10.2892 7.3007 7.11518 9.70371C3.93768 12.1062 2.98018 16.1902 4.97468 18.8272C6.97018 21.4642 11.1622 21.6497 14.3347 19.2452Z" fill="url(#paint6_radial)"/>
<path opacity="0.3" d="M21.8663 28.1978H20.8933C20.8903 28.2273 20.8938 28.2513 20.9083 28.2663C20.9773 28.3353 21.0553 28.4128 21.1368 28.4948H21.8663V29.2243C21.9628 29.3198 22.0623 29.4193 22.1633 29.5203V28.4948L24.1968 28.4943V30.5278H23.1708C23.2693 30.6263 23.3688 30.7258 23.4683 30.8258L24.1968 30.8248V31.5538C24.2968 31.6533 24.3958 31.7523 24.4943 31.8508V30.8248L26.5273 30.8253L26.5278 32.8588H25.5023C25.6048 32.9618 25.7038 33.0608 25.7998 33.1558H26.5273L26.5278 33.8833C26.6503 34.0063 26.7498 34.1058 26.8248 34.1808V33.1558H28.1563L28.4533 32.8588H26.8248V30.8248H28.8583V32.4538L29.1558 32.1568L29.1553 30.8248H30.1823C30.1073 30.7498 30.0078 30.6503 29.8853 30.5278H29.1553V29.7983C29.0608 29.7028 28.9618 29.6038 28.8588 29.5013V30.5278H26.8243L26.8248 28.4938L27.8513 28.4943C27.7533 28.3963 27.6538 28.2968 27.5548 28.1973H26.8248V27.4683C26.7253 27.3688 26.6268 27.2698 26.5278 27.1713V28.1973H24.4943V26.1638L25.5203 26.1633C25.4183 26.0613 25.3193 25.9628 25.2238 25.8663H24.4943V25.1383C24.4118 25.0558 24.3343 24.9778 24.2643 24.9088C24.2503 24.8943 24.2263 24.8908 24.1968 24.8933L24.1973 25.8663H22.8838C22.7808 25.9623 22.6763 26.0618 22.5713 26.1638H24.1968V28.1978H22.1633V26.5718C22.0618 26.6773 21.9623 26.7818 21.8663 26.8843V28.1978ZM24.4943 28.4938H26.5278V30.5273H24.4943V28.4938Z" fill="#302C3B"/>
<path d="M30.9925 30.659C31.203 30.869 26.8695 35.203 26.6585 34.992L26.32 34.652C26.109 34.4415 30.4415 30.1085 30.652 30.3195L30.9925 30.659Z" fill="url(#paint7_linear)"/>
<defs>
<linearGradient id="paint0_linear" x1="20.1096" y1="25.9459" x2="21.9462" y2="24.1092" gradientUnits="userSpaceOnUse">
<stop offset="0.3758" stop-color="#99A8AE"/>
<stop offset="0.8121" stop-color="#B3C2C6"/>
</linearGradient>
<linearGradient id="paint1_linear" x1="21.9165" y1="25.9169" x2="22.5721" y2="26.5726" gradientUnits="userSpaceOnUse">
<stop stop-color="#B3C2C6"/>
<stop offset="1" stop-color="#99A8AE"/>
</linearGradient>
<radialGradient id="paint2_radial" cx="0" cy="0" r="1" gradientUnits="userSpaceOnUse" gradientTransform="translate(12.2 16.1988) rotate(135) scale(9.43011)">
<stop stop-color="#F7EFF0"/>
<stop offset="0.3032" stop-color="#F4EDEF"/>
<stop offset="0.569" stop-color="#E9E8EE"/>
<stop offset="0.82" stop-color="#D7E0EB"/>
<stop offset="1" stop-color="#C5D7E8"/>
</radialGradient>
<radialGradient id="paint3_radial" cx="0" cy="0" r="1" gradientUnits="userSpaceOnUse" gradientTransform="translate(12.19 16.1481) rotate(135) scale(11.2072)">
<stop offset="0.7212" stop-color="#737E80"/>
<stop offset="0.8606" stop-color="#CFD8DD"/>
<stop offset="1" stop-color="#B3C2C6"/>
</radialGradient>
<linearGradient id="paint4_linear" x1="12.1998" y1="5.56059" x2="12.1998" y2="26.8387" gradientUnits="userSpaceOnUse">
<stop stop-color="#E6EBED"/>
<stop offset="1" stop-color="#CFD8DD"/>
</linearGradient>
<linearGradient id="paint5_linear" x1="23.8321" y1="31.1897" x2="27.1896" y2="27.8321" gradientUnits="userSpaceOnUse">
<stop stop-color="#302C3B"/>
<stop offset="0.6185" stop-color="#444E59"/>
<stop offset="1" stop-color="#4E5E67"/>
</linearGradient>
<radialGradient id="paint6_radial" cx="0" cy="0" r="1" gradientUnits="userSpaceOnUse" gradientTransform="translate(6.55328 9.16386) rotate(52.8823) scale(11.5767 13.9532)">
<stop stop-color="white"/>
<stop offset="1" stop-color="white" stop-opacity="0"/>
</radialGradient>
<linearGradient id="paint7_linear" x1="28.3278" y1="32.3278" x2="28.9834" y2="32.9835" gradientUnits="userSpaceOnUse">
<stop offset="0.3333" stop-color="#B3C2C6"/>
<stop offset="0.7333" stop-color="#99A8AE"/>
</linearGradient>
</defs>
</svg>
