<svg width="18" height="18" viewBox="0 0 18 18" fill="none" xmlns="http://www.w3.org/2000/svg">
<path d="M9 17.4375C13.6603 17.4375 17.4375 13.6603 17.4375 9H0.5625C0.5625 13.6603 4.33969 17.4375 9 17.4375Z" fill="#FFE12C"/>
<path d="M9 0.5625C4.33969 0.5625 0.5625 4.33969 0.5625 9H17.4375C17.4375 4.33969 13.6603 0.5625 9 0.5625Z" fill="#014D87"/>
<path opacity="0.1" d="M9 17.4375C13.6599 17.4375 17.4375 13.6599 17.4375 9C17.4375 4.3401 13.6599 0.5625 9 0.5625C4.3401 0.5625 0.5625 4.3401 0.5625 9C0.5625 13.6599 4.3401 17.4375 9 17.4375Z" fill="url(#paint0_linear)"/>
<defs>
<linearGradient id="paint0_linear" x1="9" y1="17.4375" x2="9" y2="0.5625" gradientUnits="userSpaceOnUse">
<stop stop-color="#1A1A1A"/>
<stop offset="0.102" stop-color="#393939" stop-opacity="0.949"/>
<stop offset="0.3475" stop-color="#7F7F7F" stop-opacity="0.8262"/>
<stop offset="0.5688" stop-color="#B6B6B6" stop-opacity="0.7156"/>
<stop offset="0.7582" stop-color="#DEDEDE" stop-opacity="0.6209"/>
<stop offset="0.9081" stop-color="#F6F6F6" stop-opacity="0.5459"/>
<stop offset="1" stop-color="white" stop-opacity="0.5"/>
</linearGradient>
</defs>
</svg>
