<svg width="18" height="18" viewBox="0 0 18 18" fill="none" xmlns="http://www.w3.org/2000/svg">
<path d="M13.4916 1.85906C12.1922 1.03781 10.6509 0.5625 9 0.5625V1.85906H13.4916Z" fill="#E81C27"/>
<path d="M9 3.15569H15.0834C14.6081 2.66069 14.0766 2.22476 13.4944 1.85913H9V3.15569Z" fill="#F5F5F5"/>
<path d="M9 4.45208H16.1044C15.8062 3.9852 15.4631 3.55208 15.0806 3.15552H9V4.45208Z" fill="#E81C27"/>
<path d="M9 5.74871H16.7878C16.5994 5.2959 16.3687 4.86277 16.1044 4.45215H9V5.74871Z" fill="#F5F5F5"/>
<path d="M9 7.04534H17.2069C17.1 6.59815 16.9594 6.16503 16.7878 5.74878H9V7.04534Z" fill="#E81C27"/>
<path d="M9 8.34197H17.4094C17.3756 7.90041 17.3081 7.46729 17.2069 7.04541H9V8.34197Z" fill="#F5F5F5"/>
<path d="M17.4094 8.3418H9V8.99992H0.5625C0.5625 9.21367 0.57375 9.42742 0.587812 9.63836H17.4094C17.4263 9.42742 17.4375 9.21367 17.4375 8.99992C17.4375 8.77773 17.4263 8.55836 17.4094 8.3418Z" fill="#E81C27"/>
<path d="M0.787578 10.935H17.2126C17.311 10.5131 17.3785 10.08 17.4123 9.63843H0.587891C0.621641 10.08 0.689141 10.5131 0.787578 10.935Z" fill="#F5F5F5"/>
<path d="M1.20336 12.2316H16.793C16.9646 11.8154 17.1052 11.3822 17.2093 10.9351H0.787109C0.891172 11.3822 1.0318 11.8154 1.20336 12.2316Z" fill="#E81C27"/>
<path d="M1.88191 13.528H16.1188C16.3804 13.1174 16.6082 12.6843 16.7966 12.2314H1.2041C1.39254 12.6843 1.62035 13.1174 1.88191 13.528Z" fill="#F5F5F5"/>
<path d="M2.89715 14.8246H15.1006C15.4803 14.4281 15.8206 13.9921 16.1187 13.5281H1.88184C2.17996 13.9921 2.52027 14.4281 2.89715 14.8246Z" fill="#E81C27"/>
<path d="M4.47711 16.1213H13.5249C14.1015 15.7528 14.633 15.3169 15.1027 14.8247H2.89648C3.36898 15.3169 3.89773 15.7528 4.47711 16.1213Z" fill="#F5F5F5"/>
<path d="M9.00004 17.4376C10.665 17.4376 12.2147 16.9538 13.5225 16.1213H4.47754C5.78254 16.9538 7.33504 17.4376 9.00004 17.4376Z" fill="#E81C27"/>
<path d="M4.50844 1.85906C3.92625 2.22469 3.39188 2.66344 2.91937 3.15563C2.53688 3.55219 2.19656 3.98531 1.89562 4.45219C1.63406 4.86281 1.40344 5.29594 1.21219 5.74875C1.03781 6.165 0.897187 6.59812 0.793125 7.04531C0.691875 7.46719 0.624375 7.90031 0.590625 8.34188C0.57375 8.55844 0.5625 8.77781 0.5625 9H9V8.34188V7.04531V5.74875V4.45219V3.15563V1.85906V0.5625C7.34906 0.5625 5.80781 1.03781 4.50844 1.85906Z" fill="#014D87"/>
<path d="M7.03125 0.84375L7.16344 1.26H7.59375L7.245 1.53562L7.38 1.96312L7.03125 1.71L6.6825 1.96875L6.8175 1.53562L6.46875 1.26H6.89906L7.03125 0.84375Z" fill="#F5F5F5"/>
<path d="M8.15625 2.53125L8.28844 2.9475H8.71875L8.37 3.22312L8.505 3.65062L8.15625 3.3975L7.8075 3.65625L7.9425 3.22312L7.59375 2.9475H8.02406L8.15625 2.53125Z" fill="#F5F5F5"/>
<path d="M5.90625 2.53125L6.03844 2.9475H6.46875L6.12 3.22312L6.255 3.65062L5.90625 3.3975L5.5575 3.65625L5.6925 3.22312L5.34375 2.9475H5.77406L5.90625 2.53125Z" fill="#F5F5F5"/>
<path d="M7.03125 4.21875L7.16344 4.635H7.59375L7.245 4.91062L7.38 5.33812L7.03125 5.085L6.6825 5.34375L6.8175 4.91062L6.46875 4.635H6.89906L7.03125 4.21875Z" fill="#F5F5F5"/>
<path d="M4.78125 4.21875L4.91344 4.635H5.34375L4.995 4.91062L5.13 5.33812L4.78125 5.085L4.4325 5.34375L4.5675 4.91062L4.21875 4.635H4.64906L4.78125 4.21875Z" fill="#F5F5F5"/>
<path d="M2.53125 4.21875L2.66344 4.635H3.09375L2.745 4.91062L2.88 5.33812L2.53125 5.085L2.1825 5.34375L2.3175 4.91062L1.96875 4.635H2.39906L2.53125 4.21875Z" fill="#F5F5F5"/>
<path d="M8.15625 5.90625L8.28844 6.3225H8.71875L8.37 6.59812L8.505 7.02562L8.15625 6.7725L7.8075 7.03125L7.9425 6.59812L7.59375 6.3225H8.02406L8.15625 5.90625Z" fill="#F5F5F5"/>
<path d="M5.90625 5.90625L6.03844 6.3225H6.46875L6.12 6.59812L6.255 7.02562L5.90625 6.7725L5.5575 7.03125L5.6925 6.59812L5.34375 6.3225H5.77406L5.90625 5.90625Z" fill="#F5F5F5"/>
<path d="M3.65625 5.90625L3.78844 6.3225H4.21875L3.87 6.59812L4.005 7.02562L3.65625 6.7725L3.3075 7.03125L3.4425 6.59812L3.09375 6.3225H3.52406L3.65625 5.90625Z" fill="#F5F5F5"/>
<path d="M7.03125 7.59375L7.16344 8.01H7.59375L7.245 8.28562L7.38 8.71312L7.03125 8.46L6.6825 8.71875L6.8175 8.28562L6.46875 8.01H6.89906L7.03125 7.59375Z" fill="#F5F5F5"/>
<path d="M4.78125 7.59375L4.91344 8.01H5.34375L4.995 8.28562L5.13 8.71312L4.78125 8.46L4.4325 8.71875L4.5675 8.28562L4.21875 8.01H4.64906L4.78125 7.59375Z" fill="#F5F5F5"/>
<path d="M2.53125 7.59375L2.66344 8.01H3.09375L2.745 8.28562L2.88 8.71312L2.53125 8.46L2.1825 8.71875L2.3175 8.28562L1.96875 8.01H2.39906L2.53125 7.59375Z" fill="#F5F5F5"/>
<path d="M3.30723 3.65625L3.65598 3.3975L4.00473 3.65062L3.87254 3.22594L4.21848 2.9475H3.78816L3.65598 2.53125L3.52379 2.9475H3.12441C3.11879 2.95312 3.11598 2.95594 3.11035 2.95875L3.44223 3.22031L3.30723 3.65625Z" fill="#F5F5F5"/>
<path d="M1.05766 7.03125L1.40641 6.7725L1.75516 7.02562L1.62297 6.60094L1.96891 6.3225H1.53859L1.40641 5.90625L1.27422 6.3225H0.998594C0.987344 6.35625 0.976094 6.38719 0.964844 6.41812L1.18984 6.59531L1.05766 7.03125Z" fill="#F5F5F5"/>
<path opacity="0.1" d="M9 17.4375C13.6599 17.4375 17.4375 13.6599 17.4375 9C17.4375 4.3401 13.6599 0.5625 9 0.5625C4.3401 0.5625 0.5625 4.3401 0.5625 9C0.5625 13.6599 4.3401 17.4375 9 17.4375Z" fill="url(#paint0_linear)"/>
<defs>
<linearGradient id="paint0_linear" x1="9" y1="17.4375" x2="9" y2="0.5625" gradientUnits="userSpaceOnUse">
<stop stop-color="#1A1A1A"/>
<stop offset="0.102" stop-color="#393939" stop-opacity="0.949"/>
<stop offset="0.3475" stop-color="#7F7F7F" stop-opacity="0.8262"/>
<stop offset="0.5688" stop-color="#B6B6B6" stop-opacity="0.7156"/>
<stop offset="0.7582" stop-color="#DEDEDE" stop-opacity="0.6209"/>
<stop offset="0.9081" stop-color="#F6F6F6" stop-opacity="0.5459"/>
<stop offset="1" stop-color="white" stop-opacity="0.5"/>
</linearGradient>
</defs>
</svg>
