<svg width="32" height="32" viewBox="0 0 32 32" fill="none" xmlns="http://www.w3.org/2000/svg">
<path d="M6.127 26.3582C7.328 25.7147 12.25 24.0047 12.25 24.0047L19.75 23.9902C19.75 23.9902 24.7065 25.7107 25.9005 26.3572C27.6355 27.2927 28 28.5712 28 29.7792C28 30.4492 23.93 30.8437 19.142 30.9617C19.142 30.9617 16.1935 29.2977 12.8725 30.9617C8.078 30.8442 4 30.4497 4 29.7792C4 28.5692 4.387 27.2907 6.127 26.3582Z" fill="#302C3B"/>
<path d="M19.7907 25.3713C27.3747 22.3383 26.6167 15.1338 26.6167 15.1338H5.38366C5.38366 15.1338 4.62466 22.3383 12.2077 25.3713C12.2077 25.3713 13.7252 25.7503 15.9987 25.7503C18.2752 25.7503 19.7907 25.3713 19.7907 25.3713Z" fill="#1E110E"/>
<path d="M23.667 15.9023C24.4425 19.1693 24.033 22.4023 19.791 25.3713C24.342 24.6123 27.375 20.3168 27.375 17.0198L23.667 15.9023Z" fill="url(#paint0_linear)"/>
<path d="M8.334 15.9023C7.5575 19.1693 7.967 22.4023 12.209 25.3713C7.658 24.6128 4.625 20.3168 4.625 17.0198L8.334 15.9023Z" fill="url(#paint1_linear)"/>
<path d="M11.5186 26.3916H20.4806L17.2206 31.0001H14.7806L11.5186 26.3916Z" fill="#E6EBEF"/>
<path d="M12.2397 23.502C12.2397 26.04 15.0827 26.503 15.0827 26.503C15.0827 26.503 15.3407 28.083 16.0012 29.1515C16.8617 28.052 17.1142 26.495 17.1142 26.495C17.1142 26.495 19.7512 26.04 19.7512 23.502C19.7512 22.917 19.7537 20.957 19.7537 20.957H12.2467C12.2467 20.957 12.2397 22.83 12.2397 23.502Z" fill="#F3CCA8"/>
<path d="M19.7503 23.502C19.7503 23.502 20.1858 25.997 17.8318 28.425C17.6703 27.388 17.1128 26.4955 17.1128 26.4955C17.1128 26.4955 18.9338 25.6565 19.7503 23.502Z" fill="white"/>
<path d="M15.0823 26.5029L14.4343 26.7189C14.4343 26.7189 15.4968 29.2609 15.6113 31.0004H16.3718C16.3718 30.9999 16.2883 29.2394 15.0823 26.5029Z" fill="#F1F6FA"/>
<path d="M12.2391 23.502C12.2391 23.502 11.7671 26.036 14.1211 28.464C14.4491 27.251 15.0821 26.503 15.0821 26.503C15.0821 26.503 13.0551 25.6565 12.2391 23.502Z" fill="white"/>
<path d="M19.1287 30.962C19.1287 30.962 20.7452 29.1455 21.7222 26.876L20.4802 25.616L22.4567 25.2515C22.4567 25.2515 21.3012 24.0805 19.7512 23.5015C19.7512 23.5015 19.0017 27.446 17.2212 30.9995L19.1287 30.962Z" fill="#4E5E67"/>
<path d="M12.8722 30.962C12.8722 30.962 11.2557 29.1455 10.2787 26.876L11.5207 25.616L9.54419 25.2515C9.54419 25.2515 10.6997 24.0805 12.2497 23.5015C12.2497 23.5015 12.9992 27.446 14.7797 30.9995L12.8722 30.962Z" fill="#4E5E67"/>
<path d="M15.9995 4.13818C10.4975 4.13818 7.84697 8.61868 8.17797 14.3802C8.24547 15.5382 8.56747 17.2097 8.96497 18.6402C9.79047 21.6157 14.145 24.6122 15.9995 24.6122C17.853 24.6122 22.2075 21.6162 23.0335 18.6407C23.431 17.2102 23.753 15.5387 23.8215 14.3807C24.152 8.61868 21.5035 4.13818 15.9995 4.13818Z" fill="#FFD8B4"/>
<path d="M15.999 19.9358C14.71 19.3683 14.7 19.9133 12.709 20.0463C13.456 20.8948 14.007 21.9858 15.999 21.9858C18.286 21.9858 18.672 20.7463 19.291 20.0463C17.299 19.9133 17.29 19.3683 15.999 19.9358Z" fill="#DE935D"/>
<path d="M13.3064 20.2583C14.6064 21.6108 17.4089 21.5923 18.6929 20.2593C16.6924 20.4738 15.3084 20.4738 13.3064 20.2583Z" fill="white"/>
<path d="M21.8462 12.4638C20.6507 11.7518 18.5062 11.6638 17.6587 12.1493C17.4792 12.2478 17.5267 12.7628 17.6822 12.6983C18.8922 12.1943 20.7367 12.1688 21.8727 12.7518C22.0242 12.8293 22.0282 12.5673 21.8462 12.4638Z" fill="#A88868"/>
<path d="M10.1525 12.4638C11.348 11.7518 13.4925 11.6638 14.342 12.1493C14.5225 12.2478 14.474 12.7628 14.3175 12.6983C13.1065 12.1943 11.265 12.1678 10.128 12.7518C9.97447 12.8293 9.97147 12.5673 10.1525 12.4638Z" fill="#A88868"/>
<path d="M17.2379 18.1078C17.1059 18.0158 16.7994 18.1568 15.9994 18.1568C15.2014 18.1568 14.8939 18.0163 14.7629 18.1078C14.6059 18.2183 14.8559 18.7163 15.9994 18.7163C17.1439 18.7163 17.3949 18.2183 17.2379 18.1078Z" fill="#DEB38A"/>
<path d="M14.7767 14.6252C14.8227 14.9887 14.5757 15.4202 13.8912 15.7442C13.4567 15.9492 12.5522 16.1917 11.3637 15.6907C10.8317 15.4662 10.3117 14.7667 10.3587 14.3802C11.0032 13.1662 14.1732 12.9887 14.7767 14.6252Z" fill="white"/>
<path d="M12.6251 15.8455C13.3127 15.8455 13.8701 15.2881 13.8701 14.6005C13.8701 13.9129 13.3127 13.3555 12.6251 13.3555C11.9375 13.3555 11.3801 13.9129 11.3801 14.6005C11.3801 15.2881 11.9375 15.8455 12.6251 15.8455Z" fill="url(#paint2_linear)"/>
<path d="M12.0032 14.578C12.0032 15.4395 13.2482 15.4395 13.2482 14.578C13.2482 13.778 12.0032 13.778 12.0032 14.578Z" fill="#1A1626"/>
<path d="M11.8135 14.2289C11.8135 14.5904 12.335 14.5904 12.335 14.2289C12.335 13.8944 11.8135 13.8944 11.8135 14.2289Z" fill="#AB968C"/>
<path d="M14.7817 14.6735C14.2757 13.0475 10.8277 13.288 10.3577 14.3805C10.5317 12.981 14.3502 12.612 14.7817 14.6735Z" fill="#45332C"/>
<path d="M17.2248 14.6252C17.1778 14.9887 17.4248 15.4202 18.1098 15.7442C18.5443 15.9492 19.4488 16.1917 20.6373 15.6907C21.1703 15.4662 21.6893 14.7667 21.6423 14.3802C20.9983 13.1662 17.8273 12.9887 17.2248 14.6252Z" fill="white"/>
<path d="M19.3475 15.8455C20.0351 15.8455 20.5925 15.2881 20.5925 14.6005C20.5925 13.9129 20.0351 13.3555 19.3475 13.3555C18.6599 13.3555 18.1025 13.9129 18.1025 14.6005C18.1025 15.2881 18.6599 15.8455 19.3475 15.8455Z" fill="url(#paint3_linear)"/>
<path d="M18.7253 14.578C18.7253 15.4395 19.9713 15.4395 19.9713 14.578C19.9713 13.778 18.7253 13.778 18.7253 14.578Z" fill="#1A1626"/>
<path d="M18.5359 14.2289C18.5359 14.5904 19.0574 14.5904 19.0574 14.2289C19.0574 13.8944 18.5359 13.8944 18.5359 14.2289Z" fill="#AB968C"/>
<path d="M17.2192 14.6735C17.7252 13.0485 21.1702 13.281 21.6422 14.3805C21.4672 12.981 17.6497 12.612 17.2192 14.6735Z" fill="#45332C"/>
<path d="M22.1935 4.94195C22.8215 4.04545 17.499 2.15095 12.4745 3.43045C7.455 4.57995 4.625 12.1005 4.625 17.0195C5.074 17.376 7.823 16.4875 8.334 15.902C8.542 15.0415 8.869 14.156 9.175 13.238C12.9445 11.0555 17.21 10.5415 20.171 7.92945C19.792 9.06695 21.799 10.502 22.8255 13.238C23.1585 14.1255 23.4565 15.0155 23.6675 15.902C24.5045 16.673 26.1745 17.036 27.3755 17.0195C27.375 12.859 24.205 4.36195 22.1935 4.94195Z" fill="url(#paint4_linear)"/>
<path d="M5.52979 16.2714C9.00129 11.6469 20.2488 11.9604 22.1938 4.94189C18.4173 10.8329 6.47779 11.8269 5.52979 16.2714Z" fill="#1E110E"/>
<path d="M15.6045 30.1978C15.6045 30.5593 16.126 30.5593 16.126 30.1978C16.126 29.8638 15.6045 29.8638 15.6045 30.1978Z" fill="white"/>
<defs>
<linearGradient id="paint0_linear" x1="23.583" y1="25.7493" x2="23.583" y2="3.05724" gradientUnits="userSpaceOnUse">
<stop offset="0.05" stop-color="#1E110E"/>
<stop offset="0.2334" stop-color="#31211E"/>
<stop offset="0.5223" stop-color="#493632"/>
<stop offset="0.7" stop-color="#523E3A"/>
</linearGradient>
<linearGradient id="paint1_linear" x1="8.417" y1="25.7493" x2="8.417" y2="3.05724" gradientUnits="userSpaceOnUse">
<stop offset="0.05" stop-color="#1E110E"/>
<stop offset="0.2334" stop-color="#31211E"/>
<stop offset="0.5223" stop-color="#493632"/>
<stop offset="0.7" stop-color="#523E3A"/>
</linearGradient>
<linearGradient id="paint2_linear" x1="12.6252" y1="15.8484" x2="12.6252" y2="13.3557" gradientUnits="userSpaceOnUse">
<stop stop-color="#A6694A"/>
<stop offset="1" stop-color="#4F2A1E"/>
</linearGradient>
<linearGradient id="paint3_linear" x1="19.3475" y1="15.8484" x2="19.3475" y2="13.3557" gradientUnits="userSpaceOnUse">
<stop stop-color="#A6694A"/>
<stop offset="1" stop-color="#4F2A1E"/>
</linearGradient>
<linearGradient id="paint4_linear" x1="16.0003" y1="25.7505" x2="16.0003" y2="3.0569" gradientUnits="userSpaceOnUse">
<stop offset="0.05" stop-color="#1E110E"/>
<stop offset="0.2334" stop-color="#31211E"/>
<stop offset="0.5223" stop-color="#493632"/>
<stop offset="0.7" stop-color="#523E3A"/>
</linearGradient>
</defs>
</svg>
