<svg width="160" height="48" xmlns="http://www.w3.org/2000/svg" xmlns:xlink="http://www.w3.org/1999/xlink" viewBox="0 0 160 48"><g><path fill-rule="evenodd" clip-rule="evenodd" fill="#DB5C4C" d="M0,0h92v48H11.9C5.4,48,0,42.6,0,36V0z"></path><g><path fill="#FFFFFF" d="M24,30.9L24,30.9c-0.3,0.2-0.6,0.5-0.9,0.7c-0.3,0.2-0.7,0.5-1.1,0.7c-0.4,0.2-0.8,0.4-1.3,0.5 c-0.5,0.1-1,0.2-1.6,0.2c-0.8,0-1.5-0.1-2.2-0.4c-0.7-0.2-1.2-0.6-1.7-1c-0.5-0.5-0.9-1-1.1-1.6c-0.3-0.6-0.4-1.4-0.4-2.1 c0-0.9,0.2-1.6,0.5-2.3c0.3-0.7,0.8-1.3,1.3-1.8c0.6-0.5,1.2-0.8,2-1.1c0.8-0.3,1.7-0.4,2.6-0.4c0.7,0,1.3,0,1.9,0.1 c0.6,0.1,1.1,0.2,1.6,0.3v-0.7c0-0.4-0.1-0.7-0.2-1.1c-0.1-0.3-0.3-0.7-0.6-0.9c-0.3-0.3-0.7-0.5-1.1-0.7c-0.5-0.2-1-0.2-1.7-0.2 c-0.8,0-1.6,0.1-2.4,0.3c-0.8,0.2-1.7,0.5-2.6,0.8v-3.1c0.8-0.4,1.7-0.6,2.6-0.8c0.9-0.2,1.9-0.3,2.9-0.3c1.2,0,2.2,0.1,3.1,0.4 c0.9,0.3,1.6,0.7,2.2,1.2c0.6,0.5,1,1.1,1.3,1.8c0.3,0.7,0.4,1.4,0.4,2.3v6.1c0,1.1,0,2,0,2.8c0,0.8,0,1.5,0.1,2.1h-3.6L24,30.9 L24,30.9z M23.7,25.8c-0.4-0.1-0.8-0.2-1.3-0.2c-0.5-0.1-1-0.1-1.5-0.1c-1,0-1.7,0.2-2.3,0.6c-0.6,0.4-0.8,1-0.8,1.8 c0,0.4,0.1,0.7,0.2,1c0.1,0.3,0.3,0.5,0.5,0.7c0.2,0.2,0.5,0.3,0.8,0.4c0.3,0.1,0.6,0.1,0.9,0.1c0.4,0,0.8-0.1,1.1-0.2 c0.4-0.1,0.7-0.2,1-0.4c0.3-0.2,0.6-0.3,0.8-0.5c0.2-0.2,0.4-0.4,0.6-0.6V25.8z"></path><path fill="#FFFFFF" d="M39.2,33.1c-1.6,0-3-0.3-4-0.8c-1.1-0.5-1.9-1.3-2.4-2.2c-0.3-0.5-0.5-1-0.6-1.7c-0.1-0.6-0.2-1.3-0.2-2 v-9.9h4v9.5c0,0.5,0,1,0.1,1.4c0.1,0.4,0.2,0.7,0.4,1c0.3,0.5,0.6,0.9,1.1,1.1c0.5,0.2,1.1,0.4,1.8,0.4c0.7,0,1.3-0.1,1.8-0.4 c0.5-0.3,0.9-0.7,1.1-1.2c0.3-0.5,0.4-1.3,0.4-2.2v-9.6h4v9.9c0,1.3-0.2,2.4-0.7,3.3c-0.3,0.5-0.6,1-1,1.4 c-0.4,0.4-0.9,0.8-1.4,1.1c-0.6,0.3-1.2,0.5-1.9,0.7C40.9,33,40.1,33.1,39.2,33.1z"></path><path fill="#FFFFFF" d="M60.6,32.6c-0.4,0.1-1,0.2-1.6,0.3c-0.6,0.1-1.2,0.1-1.7,0.1c-1.4,0-2.5-0.2-3.3-0.7 c-0.9-0.4-1.5-1.1-1.8-1.9c-0.3-0.6-0.4-1.4-0.4-2.4v-8.4h-3v-3.3h3v-4.5h4v4.5h4.7v3.3h-4.7v7.9c0,0.6,0.1,1.1,0.3,1.4 c0.3,0.5,1,0.8,2,0.8c0.5,0,0.9,0,1.4-0.1c0.5-0.1,0.9-0.2,1.3-0.3V32.6z"></path><path fill="#FFFFFF" d="M75.1,24.6c0-0.9-0.1-1.6-0.3-2.3c-0.2-0.7-0.5-1.2-0.8-1.7c-0.4-0.5-0.8-0.8-1.3-1 c-0.5-0.2-1-0.3-1.6-0.3c-0.6,0-1.1,0.1-1.6,0.3c-0.5,0.2-0.9,0.6-1.3,1c-0.4,0.4-0.6,1-0.8,1.7C67.1,23,67,23.7,67,24.6 c0,0.9,0.1,1.6,0.3,2.3c0.2,0.7,0.5,1.2,0.8,1.6c0.4,0.4,0.8,0.8,1.3,1c0.5,0.2,1,0.3,1.6,0.3c0.6,0,1.1-0.1,1.6-0.3 c0.5-0.2,0.9-0.6,1.3-1c0.4-0.4,0.6-1,0.8-1.6C75,26.2,75.1,25.4,75.1,24.6L75.1,24.6z M79.2,24.6c0,1.3-0.2,2.4-0.6,3.5 c-0.4,1-0.9,1.9-1.6,2.7c-0.7,0.7-1.6,1.3-2.6,1.7c-1,0.4-2.1,0.6-3.4,0.6c-1.3,0-2.4-0.2-3.4-0.6c-1-0.4-1.9-1-2.6-1.7 c-0.7-0.7-1.2-1.6-1.6-2.7c-0.4-1-0.6-2.2-0.6-3.5c0-1.3,0.2-2.4,0.6-3.5c0.4-1,0.9-1.9,1.6-2.7c0.7-0.7,1.6-1.3,2.6-1.7 c1-0.4,2.1-0.6,3.4-0.6c1.3,0,2.4,0.2,3.4,0.6c1,0.4,1.9,1,2.6,1.7c0.7,0.7,1.2,1.6,1.6,2.7C79,22.1,79.2,23.3,79.2,24.6z"></path></g><rect x="94" fill-rule="evenodd" clip-rule="evenodd" fill="#003B56" width="66" height="48"></rect><g><path fill-rule="evenodd" clip-rule="evenodd" fill="#FFFFFF" d="M109.9,28c0.2,0.9,0.5,1.9,0.7,2.8c0,0,1.2-0.3,1.4-0.3 c0.4-0.1,0.7-0.2,1-0.4c0.7-0.5,0.3-1.4,0.3-2.1c-0.1-0.8-0.4-1.7-0.6-2.4c-0.1-0.4-0.5-1.2-1-1.2c-0.6,0-1.2,0.2-1.7,0.4 C108.9,25.1,109.8,27.3,109.9,28L109.9,28z M110.8,31.4c0.2,0.9,0.5,1.7,0.7,2.6c0.2,0.8,0.4,1.6,0.7,2.4c0.1,0.3,0.3,0.8,0.6,1 c0.3,0.2,0.8,0,1.2,0c0.4,0,0.4,0.4,0.1,0.5c-0.2,0.1-0.4,0.1-0.6,0.2c-2.3,0.6-4.6,1.2-7,1.8c-0.2,0-1.4,0.5-1.5,0.2 c-0.2-0.4,0.4-0.4,0.6-0.6c0.4-0.2,0.6-0.5,0.6-0.9c0-0.8-0.3-1.7-0.5-2.5c-0.2-0.7-0.3-1.5-0.5-2.2c-0.5-1.8-0.9-3.6-1.5-5.4 c-0.2-0.7-0.4-1.9-1.3-1.8c-0.3,0-0.8,0.3-0.9-0.1c-0.1-0.2,0.1-0.4,0.3-0.5c2.1-0.5,4.2-1.1,6.2-1.6c1.6-0.4,3.3-0.9,4.9-1.3 c0.8-0.2,1.6-0.3,2.5-0.4c0.9,0,1.7-0.2,2.4,0.4c1.2,0.9,1.7,3.2,0.8,4.4c-0.5,0.7-1.3,1.1-2,1.5c-0.7,0.4-1.5,0.6-2.3,0.9 c-0.5,0.2-1.1,0.3-1.7,0.5c0.8,0.3,1.6,0.5,2.4,0.4c0.8-0.1,1.6-0.5,2.3-0.8c0.2-0.1,0.8-0.4,1-0.3c0.3,0.1,0.4,0.7,0.5,1 c0.3,0.7,0.9,1.4,1.4,2c0.5,0.6,1.2,1.2,1.8,1.6c0.3,0.2,0.7,0.4,1.1,0.4c0.2,0,0.8-0.1,0.6,0.3c-0.1,0.2-0.4,0.2-0.6,0.2 c-0.4,0.1-0.9,0.2-1.3,0.3c-1.3,0.3-2.6,0.7-3.8,1c-0.4,0.1-0.8,0.2-1.2,0.3c-0.2,0-0.5,0.2-0.6,0.1c-0.2-0.1-0.3-0.4-0.4-0.6 c-0.2-0.3-0.5-0.7-0.7-1c-0.8-1.1-1.5-2.2-2.3-3.2c-0.3-0.4-0.5-0.7-0.8-1.1c-0.2-0.3-0.3-0.2-0.7-0.1 C111.3,31.3,111,31.3,110.8,31.4L110.8,31.4z M126,28.8c0.2,0.8,0.4,1.6,0.6,2.5c0.1,0.4,0.2,0.8,0.2,1.2c0.1,0.4,0.2,0.9,0,1.2 c-0.2,0.4-0.7,0.4-1,0.6c-0.2,0.1-0.5,0.6-0.1,0.5c0.6-0.1,1.3-0.3,1.9-0.5c2.3-0.6,4.6-1.2,6.9-1.8c0.2,0,0.4-0.1,0.6-0.2 c0.4-0.3-0.3-0.4-0.5-0.4c-0.3,0-1,0.2-1.1-0.1c-0.3-0.3-0.4-0.6-0.6-1c-0.3-0.7-0.5-1.6-0.7-2.4c-0.2-0.9-0.4-1.7-0.7-2.6 c-0.4-1.7-0.8-3.3-1.2-5c-0.1-0.4-0.2-0.9,0-1.2c0.2-0.4,0.6-0.5,0.9-0.6c0.3-0.1,0.7-0.5,0.2-0.6c-0.2-0.1-0.4,0-0.6,0.1 c-2.3,0.6-4.6,1.2-6.9,1.8c-0.6,0.2-1.4,0.2-1.9,0.5c-0.4,0.2,0.1,0.5,0.3,0.5c0.4,0,0.8-0.2,1.2,0c0.3,0.2,0.5,0.7,0.6,1.1 c0.1,0.4,0.2,0.7,0.3,1.1c0.2,0.8,0.5,1.6,0.7,2.4C125.5,27,125.7,27.9,126,28.8L126,28.8L126,28.8z M142.9,24.2 c-1-1.4-2-2.7-2.9-4.1c0.1,0.1,0,0.6,0,0.7c0,0.6-0.1,1.2-0.1,1.7c-0.1,0.9-0.1,1.7-0.2,2.6C140.7,24.8,141.8,24.5,142.9,24.2 L142.9,24.2z M139.6,25.7c0,0.8-0.1,1.9,0.4,2.6c0.2,0.3,0.5,0.5,0.7,0.7c0.3,0.3,0.6,0.6,1,0.7c0.4,0.1,0.8,0.1,1.1,0.2 c0.4,0.2-0.1,0.4-0.3,0.5c-0.8,0.2-1.7,0.4-2.5,0.7c-1.2,0.3-2.3,0.6-3.5,0.9c-0.2,0.1-0.5,0.1-0.7,0.1c-0.5,0,0-0.4,0.1-0.5 c1.4-0.8,1.9-2.8,2.3-4.3c0.5-1.7,0.5-3.4,0.7-5.2c0.1-0.9,0.2-1.7,0.2-2.6c0-0.9-1.2-0.7-1.8-0.9c-0.4-0.1-0.4-0.3,0-0.5 c0.4-0.2,0.8-0.2,1.2-0.4c0.8-0.3,1.5-0.8,2.1-1.3c0.7-0.5,1.2-1.1,1.8-1.7c0.2-0.2,0.4-0.5,0.6-0.2c0.3,0.3,0.5,0.6,0.7,0.9 c2.1,2.9,4.2,5.8,6.4,8.7c0.5,0.6,0.9,1.3,1.4,1.8c0.3,0.3,0.5,0.6,0.8,0.8c0.3,0.3,0.6,0.3,1,0.2c0.2,0,0.3,0,0.5,0.1 c0.1,0,0.3,0.1,0.2,0.2c-0.1,0.1-0.3,0.2-0.5,0.2c-0.9,0.2-1.8,0.5-2.7,0.7c-2.1,0.6-4.2,1.1-6.3,1.7c-0.1,0-0.3,0.1-0.4,0.1 c-0.1,0-0.2-0.2-0.2-0.3c0-0.2,0.3-0.2,0.4-0.3c0.4-0.2,0.8-0.4,0.9-0.8c0.2-0.4,0-0.8-0.2-1.2c-0.2-0.5-0.5-1-0.9-1.4 c-0.2-0.2-0.3-0.4-0.5-0.6c-0.1-0.1-0.2-0.2-0.3-0.3c0-0.1-0.2-0.3-0.3-0.3c-0.1,0-0.4,0.1-0.5,0.1c-0.4,0.1-0.8,0.2-1.3,0.3 C140.8,25.4,140.2,25.5,139.6,25.7L139.6,25.7z"></path></g><g><polygon fill-rule="evenodd" clip-rule="evenodd" fill="#FFFFFF" points="120.3,14.8 113.8,13.9 120.9,12.1 122.2,7.2 126.5,10.9 139.4,8 129.3,13.6 132.9,16.7 125.4,15.6 118.6,19.8"></polygon></g></g></svg>