<svg  xmlns="http://www.w3.org/2000/svg" xmlns:xlink="http://www.w3.org/1999/xlink" x="0px" y="0px"
	 viewBox="0 0 566 169.7" style="enable-background:new 0 0 566 169.7;" xml:space="preserve">
<style type="text/css">
	.st0{clip-path:url(#SVGID_2_);fill:#2C3C4D;}
</style>
<g>
	<defs>
		<rect id="SVGID_1_" width="566" height="169.7"/>
	</defs>
	<clipPath id="SVGID_2_">
		<use xlink:href="#SVGID_1_"  style="overflow:visible;"/>
	</clipPath>
	<path class="st0" d="M111.4,55.4c-7.1-7.1-16.9-10.6-30.1-10.6c-18.3,0-42.2,3.5-46.5,4.2V0H0v156.5l0.2,0.2
		c0.2,0.1,4.8,3.3,14.6,6.5c9,3,24.3,6.5,45.9,6.5c21.7,0,38-5.4,48.6-16c10.8-10.8,15.9-27.1,15.8-49.7
		C125.2,80.7,120.7,64.8,111.4,55.4 M90.7,106.3L90.7,106.3c0.1,13.4-1.2,23.7-7.6,30.2c-5.3,5.3-13.9,7.8-26.9,7.8
		c-14.1,0-20.1-2.9-21.4-3.6V72.6h33.8c8.5,0,13.6,1.4,16.8,4.6C90,81.8,90.8,90.6,90.7,106.3"/>
	<path class="st0" d="M310.4,44.8c-28.1,0-58.4,5.8-58.7,5.9l-0.5,0.1v21.8h53.5c5.6,0,9.5,1.1,11.8,3.5c3.2,3.2,3.2,8.2,3.1,13.1
		l0,5.9c-3.4-0.3-20.2-1.4-34.8-1.4c-35.3,0-49.7,10.2-49.7,35.2c0,28.6,13.9,40.8,46.6,40.8c38.7,0,69.5-10.7,69.9-10.8l0.4-0.1V90
		C352.1,67.6,347.1,44.8,310.4,44.8 M319.8,140.5c-3.1,0.6-21.3,3.7-36.3,3.7c-12.4,0-14.8-5.5-14.8-15.6c0-9.4,4.1-11.8,20-11.8h31
		V140.5z"/>
	<path class="st0" d="M523.7,44.8c-37.8,0-78.3,7.8-78.7,7.9l-0.5,0.1v111.8H478V72.6h35.6c7.7,0,12.6,1.3,15.4,4.2
		c3,3,3.6,7.7,3.5,13.9v74H566V89.5C566,58.2,553.4,44.8,523.7,44.8"/>
	<rect x="381.6" y="48.1" class="st0" width="33.4" height="116.5"/>
	<polygon class="st0" points="381.3,0 381.3,32.5 415,32.5 415,32.2 415.3,32.2 415.3,0 	"/>
	<path class="st0" d="M224.5,44.8c-30.1,0-74.6,7.8-75.1,7.9l-0.5,0.1v111.9h33.4V72.6h42.7V44.8H224.5z"/>
</g>
</svg>
