<svg width="37" height="28" viewBox="0 0 37 28" fill="none" xmlns="http://www.w3.org/2000/svg">
<g clip-path="url(#clip0)">
<path d="M7.06627 27.9376V26.0791C7.06627 25.3668 6.63366 24.9021 5.89203 24.9021C5.52121 24.9021 5.1195 25.026 4.84139 25.4287C4.62508 25.088 4.31606 24.9021 3.85254 24.9021C3.54353 24.9021 3.23452 24.9951 2.98731 25.3358V24.9641H2.33838V27.9376H2.98731V26.296C2.98731 25.7694 3.26542 25.5216 3.69803 25.5216C4.13065 25.5216 4.34696 25.8004 4.34696 26.296V27.9376H4.99589V26.296C4.99589 25.7694 5.3049 25.5216 5.70662 25.5216C6.13924 25.5216 6.35555 25.8004 6.35555 26.296V27.9376H7.06627V27.9376ZM16.6766 24.9641H15.6259V24.0659H14.977V24.9641H14.3899V25.5526H14.977V26.9154C14.977 27.5968 15.2551 27.9995 15.9967 27.9995C16.2749 27.9995 16.5839 27.9066 16.8002 27.7827L16.6148 27.2252C16.4294 27.3491 16.2131 27.38 16.0585 27.38C15.7495 27.38 15.6259 27.1942 15.6259 26.8845V25.5526H16.6766V24.9641V24.9641ZM22.177 24.9021C21.8062 24.9021 21.559 25.088 21.4045 25.3358V24.9641H20.7555V27.9376H21.4045V26.265C21.4045 25.7694 21.6208 25.4907 22.0225 25.4907C22.1461 25.4907 22.3006 25.5216 22.4242 25.5526L22.6096 24.9331C22.486 24.9021 22.3006 24.9021 22.177 24.9021V24.9021ZM13.8646 25.2119C13.5555 24.9951 13.1229 24.9021 12.6594 24.9021C11.9178 24.9021 11.4234 25.2738 11.4234 25.8623C11.4234 26.3579 11.7942 26.6367 12.4431 26.7296L12.7521 26.7606C13.092 26.8225 13.2774 26.9154 13.2774 27.0703C13.2774 27.2871 13.0302 27.442 12.5976 27.442C12.165 27.442 11.8251 27.2871 11.6088 27.1322L11.2998 27.6278C11.6397 27.8756 12.1032 27.9995 12.5667 27.9995C13.4319 27.9995 13.9264 27.5968 13.9264 27.0393C13.9264 26.5128 13.5246 26.234 12.9066 26.1411L12.5976 26.1101C12.3195 26.0791 12.1032 26.0172 12.1032 25.8314C12.1032 25.6145 12.3195 25.4907 12.6594 25.4907C13.0302 25.4907 13.401 25.6455 13.5864 25.7384L13.8646 25.2119V25.2119ZM31.1075 24.9021C30.7367 24.9021 30.4895 25.088 30.3349 25.3358V24.9641H29.686V27.9376H30.3349V26.265C30.3349 25.7694 30.5513 25.4907 30.953 25.4907C31.0766 25.4907 31.2311 25.5216 31.3547 25.5526L31.5401 24.9331C31.4165 24.9021 31.2311 24.9021 31.1075 24.9021V24.9021ZM22.8259 26.4508C22.8259 27.3491 23.444 27.9995 24.4019 27.9995C24.8345 27.9995 25.1435 27.9066 25.4525 27.6588L25.1435 27.1322C24.8963 27.3181 24.6491 27.411 24.371 27.411C23.8457 27.411 23.4749 27.0393 23.4749 26.4508C23.4749 25.8933 23.8457 25.5216 24.371 25.4907C24.6491 25.4907 24.8963 25.5836 25.1435 25.7694L25.4525 25.2429C25.1435 24.9951 24.8345 24.9021 24.4019 24.9021C23.444 24.9021 22.8259 25.5526 22.8259 26.4508V26.4508ZM28.8208 26.4508V24.9641H28.1719V25.3358C27.9555 25.057 27.6465 24.9021 27.2448 24.9021C26.4105 24.9021 25.7616 25.5526 25.7616 26.4508C25.7616 27.3491 26.4105 27.9995 27.2448 27.9995C27.6774 27.9995 27.9865 27.8446 28.1719 27.5659V27.9376H28.8208V26.4508ZM26.4414 26.4508C26.4414 25.9243 26.7813 25.4907 27.3375 25.4907C27.8628 25.4907 28.2337 25.8933 28.2337 26.4508C28.2337 26.9774 27.8628 27.411 27.3375 27.411C26.7813 27.38 26.4414 26.9774 26.4414 26.4508ZM18.6852 24.9021C17.8199 24.9021 17.2019 25.5216 17.2019 26.4508C17.2019 27.38 17.8199 27.9995 18.7161 27.9995C19.1487 27.9995 19.5813 27.8756 19.9212 27.5968L19.6122 27.1322C19.365 27.3181 19.056 27.442 18.747 27.442C18.3452 27.442 17.9435 27.2561 17.8508 26.7296H20.0448C20.0448 26.6367 20.0448 26.5747 20.0448 26.4818C20.0757 25.5216 19.5195 24.9021 18.6852 24.9021V24.9021ZM18.6852 25.4597C19.0869 25.4597 19.365 25.7075 19.4268 26.1721H17.8817C17.9435 25.7694 18.2216 25.4597 18.6852 25.4597ZM34.7847 26.4508V23.7871H34.1358V25.3358C33.9195 25.057 33.6105 24.9021 33.2088 24.9021C32.3744 24.9021 31.7255 25.5526 31.7255 26.4508C31.7255 27.3491 32.3744 27.9995 33.2088 27.9995C33.6414 27.9995 33.9504 27.8446 34.1358 27.5659V27.9376H34.7847V26.4508ZM32.4053 26.4508C32.4053 25.9243 32.7452 25.4907 33.3015 25.4907C33.8268 25.4907 34.1976 25.8933 34.1976 26.4508C34.1976 26.9774 33.8268 27.411 33.3015 27.411C32.7452 27.38 32.4053 26.9774 32.4053 26.4508ZM10.7126 26.4508V24.9641H10.0637V25.3358C9.84739 25.057 9.53838 24.9021 9.13666 24.9021C8.30233 24.9021 7.65339 25.5526 7.65339 26.4508C7.65339 27.3491 8.30233 27.9995 9.13666 27.9995C9.56928 27.9995 9.87829 27.8446 10.0637 27.5659V27.9376H10.7126V26.4508ZM8.30232 26.4508C8.30232 25.9243 8.64224 25.4907 9.19846 25.4907C9.72378 25.4907 10.0946 25.8933 10.0946 26.4508C10.0946 26.9774 9.72378 27.411 9.19846 27.411C8.64224 27.38 8.30232 26.9774 8.30232 26.4508Z" fill="black"/>
<path d="M23.3814 2.38477H13.6475V19.9157H23.3814V2.38477Z" fill="#FF5F00"/>
<path d="M14.2657 11.1504C14.2657 7.5885 15.9344 4.42921 18.4992 2.38496C16.6142 0.898234 14.2348 0 11.6391 0C5.48976 0 0.514648 4.98673 0.514648 11.1504C0.514648 17.3142 5.48976 22.3009 11.6391 22.3009C14.2348 22.3009 16.6142 21.4027 18.4992 19.9159C15.9344 17.9027 14.2657 14.7124 14.2657 11.1504Z" fill="#EB001B"/>
<path d="M36.5143 11.1504C36.5143 17.3142 31.5392 22.3009 25.3899 22.3009C22.7942 22.3009 20.4148 21.4027 18.5298 19.9159C21.1255 17.8717 22.7633 14.7124 22.7633 11.1504C22.7633 7.5885 21.0946 4.42921 18.5298 2.38496C20.4148 0.898234 22.7942 0 25.3899 0C31.5392 0 36.5143 5.0177 36.5143 11.1504Z" fill="#F79E1B"/>
</g>
<defs>
<clipPath id="clip0">
<rect width="36" height="28" fill="white" transform="translate(0.514648)"/>
</clipPath>
</defs>
</svg>
