<svg width="169" height="28" viewBox="0 0 169 28" fill="none" xmlns="http://www.w3.org/2000/svg">
<g clip-path="url(#clip0)">
<path d="M32.2675 24.4914H28.1455V9.82031H42.9845V24.4914H38.8634V12.6704H32.2675V24.4914Z" fill="#38B253"/>
<path d="M44.9824 13.8447V28.3702H48.781V23.4028C50.0539 24.7867 52.1277 24.8913 52.6275 24.8913C56.2503 24.8913 58.4734 22.564 58.4734 19.1896C58.4734 15.6688 56.2746 13.4473 52.7028 13.4473C51.8025 13.4473 50.0539 13.594 48.6049 15.1244H48.5301L48.5547 13.8447H44.9824V13.8447ZM48.6049 19.1474C48.6049 16.172 50.4293 15.5854 51.5787 15.5854C52.7028 15.5854 54.5263 16.172 54.5263 19.1474C54.5263 20.9927 53.7523 22.7538 51.5787 22.7538C49.3552 22.7538 48.6049 20.9927 48.6049 19.1474V19.1474Z" fill="#38B253"/>
<path d="M67.8908 23.2139C66.4924 24.5333 65.1451 24.8904 63.6446 24.8904C59.5476 24.8904 59.397 21.7881 59.397 20.5099V13.8438H63.1946V20.0061C63.1946 22.1237 63.921 22.7529 65.3188 22.7529C67.7159 22.7529 67.8908 20.5937 67.8908 19.8181V13.8438H71.69V24.4914H67.8908V23.2139V23.2139Z" fill="#38B253"/>
<path d="M77.1375 20.0061H79.4612C81.2586 20.0061 81.6336 20.5515 81.6336 21.2644C81.6336 21.7251 81.3828 22.3542 79.5082 22.3542H77.1375V20.0061ZM73.3398 13.8438V24.4914H80.8847C83.6326 24.4914 85.5308 23.9467 85.5308 21.767C85.5308 20.0902 84.6053 19.3568 82.5078 18.9799V18.9166C83.8822 18.728 85.082 17.8683 85.082 16.4227C85.082 13.8437 82.0836 13.8438 80.9093 13.8438H73.3398V13.8438ZM77.1375 15.9828H79.1845C80.2592 15.9828 81.1826 16.1503 81.1826 17.0298C81.1826 17.9949 79.7341 18.0157 79.1098 18.0157H77.1375V15.9828Z" fill="#38B253"/>
<path d="M90.3268 17.2826C90.3268 15.7107 91.9755 15.5854 92.6505 15.5854C93.0756 15.5854 94.6483 15.6065 94.6996 16.9895C94.6996 17.0943 94.6996 17.1781 94.6996 17.2826C94.6246 18.3306 93.6253 18.1212 90.8282 18.4773C88.5282 18.7916 86.105 19.3779 86.105 21.8101C86.105 22.6905 86.48 24.8913 90.5273 24.8913C92.0772 24.8913 93.7762 24.4924 94.7737 23.445H94.8509L95.1743 24.4924H99.1711V24.3043C98.4469 24.1573 98.3968 23.445 98.4214 22.2919L98.4964 17.4288C98.5219 16.1931 98.3968 13.4473 92.676 13.4473C91.3016 13.4473 86.8796 13.5726 86.7047 17.2826H90.3268V17.2826ZM94.7242 20.0911C94.7242 22.2292 92.8752 22.7538 91.9521 22.7538C91.2512 22.7538 90.0022 22.5224 90.0022 21.5169C90.0022 20.3216 91.4258 20.0911 92.2263 19.9863C93.7003 19.7766 93.5749 19.8398 94.7242 19.4201V20.0911V20.0911Z" fill="#38B253"/>
<path d="M98.9224 15.9828V13.8438H111.113V15.9828H106.916V24.4914H103.12V15.9828H98.9224Z" fill="#38B253"/>
<path d="M115.961 12.6704H125.429V9.82031H111.838V24.4914H120.182C124.23 24.4914 126.827 23.0671 126.827 20.069C126.827 15.3749 121.631 15.2695 120.182 15.2695H115.961V12.6704V12.6704ZM115.961 18.1202H119.383C120.385 18.1202 122.381 18.2253 122.381 19.9853C122.381 21.3689 120.932 21.641 119.309 21.641H115.961V18.1202V18.1202Z" fill="#38B253"/>
<path d="M131.778 17.2826C131.778 15.7107 133.427 15.5854 134.1 15.5854C134.525 15.5854 136.1 15.6065 136.15 16.9895C136.15 17.0943 136.15 17.1781 136.15 17.2826C136.074 18.3306 135.076 18.1212 132.276 18.4773C129.979 18.7916 127.556 19.3779 127.556 21.8101C127.556 22.6905 127.929 24.8913 131.977 24.8913C133.526 24.8913 135.225 24.4924 136.224 23.445H136.298L136.624 24.4924H140.621V24.3043C139.899 24.1573 139.846 23.445 139.872 22.2919L139.947 17.4288C139.972 16.1931 139.846 13.4473 134.125 13.4473C132.752 13.4473 128.329 13.5726 128.154 17.2826H131.778V17.2826ZM136.174 20.0911C136.174 22.2292 134.325 22.7538 133.402 22.7538C132.702 22.7538 131.453 22.5224 131.453 21.5169C131.453 20.3216 132.876 20.0911 133.675 19.9863C135.15 19.7766 135.024 19.8398 136.174 19.4201V20.0911V20.0911Z" fill="#38B253"/>
<path d="M145.365 24.4914H141.567V13.8438H145.365V17.8476H149.937V13.8438H153.735V24.4914H149.937V19.9853H145.365V24.4914Z" fill="#38B253"/>
<path d="M163.326 13.8438H167.547L162.327 18.8319L167.798 24.4914H163.35L159.253 19.8389H159.18V24.4914H155.383V13.8438H159.18V18.1202H159.253L163.326 13.8438Z" fill="#38B253"/>
<path d="M0.566895 24.5306H10.0786V14.9551H0.566895V24.5306Z" fill="#232A42"/>
<path d="M19.8762 5.10512C19.8762 8.36118 19.8762 16.2141 19.8762 19.4702C18.9728 19.4702 18.8136 19.4702 17.9357 19.4702C17.0979 12.3659 12.6638 7.90323 5.60567 7.05979C5.60567 6.176 5.60567 6.01643 5.60567 5.10512C8.84032 5.10512 16.6415 5.10512 19.8762 5.10512V5.10512ZM0.57666 0.0429688V11.9615H3.09193C9.71093 11.9615 13.0671 15.3395 13.0671 22.0008V24.5329H24.9052V0.0429688H0.57666V0.0429688Z" fill="#38B253"/>
</g>
<defs>
<clipPath id="clip0">
<rect width="168" height="28" fill="white" transform="translate(0.0292969)"/>
</clipPath>
</defs>
</svg>
