<svg width="65" height="28" viewBox="0 0 65 28" fill="none" xmlns="http://www.w3.org/2000/svg">
<g clip-path="url(#clip0)">
<path d="M15.8047 19.6778C16.2747 19.6778 16.71 19.8169 17.0974 20.0968C17.4801 20.3722 18.0135 21.008 18.6785 21.9847C19.2875 22.8967 19.8142 23.5955 20.2428 24.0672H22.2808V23.927C21.9586 23.892 21.6439 23.7473 21.3479 23.4992C21.034 23.2363 20.5958 22.6853 20.0508 21.8588C19.576 21.1263 19.1811 20.592 18.8765 20.2698C18.5789 19.9536 18.2748 19.7017 17.97 19.5267L17.8241 19.4405L17.9848 19.3969C19.4026 19.0167 20.0919 18.2768 20.0919 17.1372C20.0919 16.4434 19.778 15.857 19.1684 15.408C18.5535 14.9547 17.7144 14.7253 16.6757 14.7253H12.4619V14.859C12.9174 14.8698 13.2299 14.9866 13.3938 15.2075C13.5668 15.4339 13.6477 15.8277 13.6477 16.4091V22.3579C13.6477 22.469 13.641 22.5746 13.6355 22.6789C14.1921 23.0535 14.672 23.3297 15.1378 23.5368C14.9669 23.2983 14.8856 22.9096 14.8856 22.3565V19.6779H15.8047V19.6778ZM14.8857 14.9457H16.0537C16.8607 14.9457 17.5228 15.1511 18.0173 15.5594C18.5164 15.9667 18.7684 16.5089 18.7684 17.1676C18.7684 17.8454 18.5416 18.3944 18.0908 18.8037C17.6437 19.2127 17.0233 19.4189 16.2419 19.4189H14.8859V14.9457H14.8857ZM39.1609 22.4845C39.1659 22.5542 39.1683 22.6208 39.1683 22.6853C39.1683 23.0758 39.0832 23.3568 38.9057 23.5532C38.7383 23.7364 38.4638 23.858 38.0777 23.9246V24.0672H41.6943V23.927C41.2499 23.8819 40.945 23.7546 40.7631 23.5454C40.5788 23.3237 40.4578 22.9036 40.3961 22.2601L39.8725 16.4124C39.8654 16.3363 39.8654 16.2627 39.8654 16.1882C39.8654 15.3483 40.2563 14.8996 41.0392 14.8587V14.725H38.6844L35.2527 22.2884L35.1882 22.1455L31.8623 14.725H29.3326V14.8674C29.8592 14.9581 30.3115 15.1836 30.6709 15.5433L30.6968 15.5652L30.6929 15.5997L30.0649 22.1234C29.9887 22.8091 29.8504 23.2572 29.6502 23.4932C29.4558 23.7155 29.145 23.8617 28.7248 23.9245V24.0671H31.8378V23.9231C30.9339 23.7533 30.4741 23.2419 30.4741 22.4077C30.4741 22.3263 30.4789 22.2378 30.4858 22.1455L31.098 16.0505L34.7216 24.0672H34.9065L38.5761 16.0294L39.1609 22.4845ZM27.2662 14.725H23.6491V14.8587C24.1005 14.87 24.4032 14.9846 24.5741 15.2059C24.7501 15.4338 24.8335 15.8384 24.8335 16.4432V22.3577C24.8335 22.9498 24.7466 23.3517 24.5694 23.5809C24.3974 23.8088 24.0938 23.9233 23.6491 23.9342V24.0674H27.2662V23.9342C26.8348 23.9207 26.5314 23.8005 26.3567 23.5794C26.1722 23.3461 26.0852 22.9486 26.0852 22.3579V16.4434C26.0852 15.8512 26.1722 15.4523 26.3567 15.2167C26.5314 14.9938 26.8348 14.8703 27.2662 14.859V14.725V14.725ZM9.17198 23.8166C9.7295 24.2166 10.477 24.702 11.3447 24.9509C12.0215 25.1619 12.5932 25.2561 13.1477 25.2561C13.4672 25.2561 13.7785 25.2268 14.0896 25.1582C13.675 25.106 13.3058 25.0067 12.9715 24.8509C11.7336 24.302 10.6716 23.4625 9.5093 22.4987C9.11267 22.1658 8.73686 21.8239 8.29178 21.411L8.22583 21.354L8.23549 21.3465L4.67093 18.0665L4.72949 18.0157L8.48527 14.6451C8.88054 14.2817 9.32004 13.9812 9.795 13.7586C10.2762 13.5338 10.708 13.4213 11.0795 13.4213H11.6022V13.2402H7.18354V13.4326C7.68914 13.536 7.94828 13.7631 7.94828 14.1071C7.94828 14.3587 7.73592 14.6755 7.29522 15.0762L3.29102 18.6536L5.71231 20.8746C6.63326 21.755 7.85953 22.8827 9.17198 23.8166Z" fill="#232A42"/>
<path d="M3.53672 13.84C3.74138 13.574 4.09047 13.4345 4.58082 13.4216V13.2405H0.395508V13.4216C0.921936 13.4329 1.2745 13.5658 1.46949 13.8291C1.6657 14.0909 1.76727 14.552 1.76727 15.2362V22.0788C1.76727 22.7448 1.66404 23.2021 1.4615 23.4735C1.2668 23.7364 0.908202 23.8809 0.395508 23.8874V24.0672H4.58067V23.8874C4.07311 23.8809 3.71995 23.7364 3.52963 23.4735C3.33056 23.202 3.23366 22.7447 3.23366 22.0788V15.2362C3.23381 14.5738 3.33282 14.117 3.53672 13.84ZM15.8702 3.21223H12.8808V3.32715C13.2507 3.33392 13.5087 3.42838 13.6481 3.61189C13.7923 3.7981 13.8617 4.12947 13.8617 4.63036V9.51107C13.8617 9.99736 13.7877 10.3295 13.6415 10.5232C13.5011 10.7025 13.248 10.8001 12.8808 10.8083V10.9229H15.8704V10.8083C15.5106 10.8001 15.2656 10.7046 15.1171 10.5192C14.9665 10.3275 14.891 9.99405 14.891 9.51107V4.63051C14.891 4.14602 14.9665 3.81315 15.1171 3.61911C15.2656 3.43184 15.5106 3.33407 15.8704 3.3273V3.21223H15.8702ZM23.3261 9.33087C23.1401 9.87959 22.9403 10.224 22.7249 10.3937C22.5029 10.5691 22.12 10.6587 21.5788 10.6587H20.3239C19.9238 10.6587 19.6581 10.6011 19.5125 10.4844C19.359 10.3644 19.2879 10.1571 19.2879 9.84469V4.61592C19.2879 4.15955 19.3649 3.83706 19.5228 3.63174C19.6776 3.43801 19.9198 3.33407 20.2508 3.3273V3.21238H17.2794V3.3273C17.6424 3.33407 17.8899 3.42116 18.0352 3.59504C18.1848 3.77644 18.26 4.07577 18.26 4.51604V9.44533C18.26 9.92411 18.181 10.2753 18.0229 10.4861C17.8689 10.6899 17.6205 10.8004 17.2794 10.8087V10.9233H22.9702L23.4651 9.33117H23.3261V9.33087ZM12.6399 2.02635V1.97656H10.8984L7.91583 9.2337L7.863 9.10479L5.4245 3.26759C5.42254 3.2551 5.41801 3.24247 5.4168 3.23073L4.89686 1.97656H2.24087V2.12863C2.61034 2.14292 3.33282 2.22851 3.55861 2.42119C3.77881 2.60365 4.02919 3.03128 4.32259 3.72455L7.39498 11.0282H7.59798L10.5259 3.93333C11.0797 2.64246 11.7339 2.05087 12.6399 2.02635ZM29.848 9.33087C29.6628 9.86831 29.46 10.224 29.2495 10.3937C29.0262 10.5691 28.6462 10.6587 28.1032 10.6587H26.9486C26.5483 10.6587 26.2812 10.6011 26.1374 10.4844C25.9858 10.3623 25.9126 10.1571 25.9126 9.84469V4.61592C25.9126 4.15955 25.9887 3.83947 26.1505 3.63174C26.3008 3.43801 26.5432 3.33407 26.8772 3.3273V3.21238H23.9043V3.3273C24.2665 3.33407 24.5163 3.42116 24.663 3.59504C24.81 3.77644 24.8826 4.08329 24.8826 4.51604V9.44533C24.8826 9.92411 24.8014 10.2753 24.6483 10.4861C24.4936 10.6899 24.2455 10.7991 23.9041 10.8087V10.9233H29.4964L29.989 9.33117H29.848V9.33087ZM35.368 7.79196L36.1706 9.96141C36.2144 10.079 36.2384 10.1885 36.2384 10.2847C36.2384 10.6208 35.9863 10.7974 35.4923 10.8084V10.923H38.4171V10.8084C38.0744 10.8043 37.8329 10.7436 37.6714 10.6229C37.5006 10.5043 37.3463 10.2445 37.1889 9.83145L34.7054 3.1271H33.8942L31.5251 9.541C31.3422 10.0273 31.1581 10.3495 30.9736 10.5088C30.7978 10.6601 30.5589 10.7585 30.2498 10.8043V10.923H32.3621V10.8084C31.7974 10.7783 31.6788 10.49 31.6788 10.2457C31.6788 10.0551 31.7512 9.76497 31.9033 9.36185L32.5052 7.75225H35.3532L35.368 7.79196ZM32.6258 7.38899L33.9159 3.84639L33.9704 3.99771L35.2163 7.38899H32.6258Z" fill="#232A42"/>
<path d="M60.4528 3.38347C60.793 2.80316 61.1476 2.30242 61.5198 1.87524C61.7305 1.63352 61.9491 1.41482 62.1709 1.22018C62.9924 0.504797 63.8972 0.105743 64.9182 0.000150416H60.2572L59.5459 1.87524L58.9743 3.38347L57.9847 5.9959L52.9064 19.3956L52.2879 21.0237L52.2584 21.1049L51.7605 22.4167L51.6061 22.0094L44.6044 3.83426C44.5879 3.79124 44.5825 3.7586 44.5781 3.72311L43.1573 0H37.0811C37.454 0.00270749 38.1406 0.0648294 39.242 1.19446C39.9379 1.90608 40.5911 3.09557 41.4381 5.25675L50.2602 27.9999H50.8459L53.2502 21.6785L53.394 21.3002L54.0964 19.453L59.2485 5.90535C59.6313 4.94012 60.0303 4.10215 60.4528 3.38347Z" fill="#232A42"/>
<path d="M50.4507 6.3875C50.5543 6.3875 50.6509 6.41954 50.7381 6.48151C50.8231 6.54213 50.9422 6.68412 51.0892 6.90102C51.2256 7.10694 51.3453 7.26247 51.4377 7.36821H51.8939V7.33542C51.8215 7.32655 51.7522 7.29586 51.6855 7.23931C51.6156 7.18064 51.5191 7.0582 51.3957 6.8747C51.2899 6.7121 51.2027 6.59131 51.135 6.51941C51.0667 6.44812 50.9986 6.39291 50.9316 6.35546L50.8979 6.3347L50.9357 6.32688C51.252 6.23783 51.4049 6.07629 51.4049 5.82088C51.4049 5.66535 51.3347 5.53479 51.2008 5.43551C51.0626 5.33518 50.8752 5.28179 50.6429 5.28179H49.7028V5.31322C49.8042 5.31428 49.8753 5.3409 49.9109 5.39189C49.9483 5.44108 49.9669 5.52757 49.9669 5.65798V6.98721C49.9669 7.01067 49.9669 7.03564 49.9639 7.0564C50.0882 7.14123 50.1958 7.20411 50.3 7.24908C50.2604 7.19553 50.2437 7.1089 50.2437 6.98375V6.3878H50.4507V6.3875ZM50.2441 5.33173H50.5033C50.6848 5.33173 50.8305 5.3785 50.9422 5.46845C51.0535 5.5578 51.1104 5.68024 51.1104 5.8269C51.1104 5.97972 51.0573 6.10246 50.9574 6.19271C50.8604 6.28521 50.7208 6.33079 50.5455 6.33079H50.244V5.33173H50.2441ZM55.6604 7.01488C55.6625 7.02917 55.6625 7.04497 55.6625 7.0582C55.6625 7.1468 55.6433 7.20967 55.6038 7.25254C55.5652 7.29451 55.5057 7.32113 55.4195 7.33542V7.36821H56.2258V7.33542C56.128 7.32655 56.0581 7.29827 56.0185 7.25119C55.9767 7.19975 55.9478 7.10694 55.9348 6.96104L55.8198 5.65768C55.8171 5.64128 55.8171 5.62429 55.8171 5.60924C55.8171 5.42198 55.9043 5.3218 56.0782 5.31292V5.28149H55.554L54.7876 6.97111L54.7728 6.93832L54.0315 5.28134H53.4649V5.31383C53.5846 5.33488 53.6869 5.38407 53.7646 5.46514L53.772 5.4683V5.47913L53.6297 6.93486C53.6108 7.08588 53.5811 7.18651 53.5375 7.23901C53.4945 7.28609 53.4243 7.32083 53.3309 7.33512V7.36791H54.0257V7.33512C53.8229 7.29556 53.7209 7.1826 53.7209 6.99744C53.7209 6.97803 53.7224 6.95712 53.7224 6.93802L53.8609 5.57781L54.6687 7.36776H54.7105L55.5303 5.57435L55.6604 7.01488ZM53.0056 5.28164H52.1994V5.31307C52.3008 5.31413 52.3689 5.34075 52.4039 5.38843C52.4443 5.44093 52.4645 5.52922 52.4645 5.66535V6.98706C52.4645 7.11702 52.4442 7.20727 52.4039 7.25976C52.3658 7.30925 52.2975 7.33542 52.1994 7.33813V7.36821H53.0056V7.33813C52.9104 7.33407 52.8417 7.30744 52.8019 7.25976C52.7604 7.20727 52.7426 7.11687 52.7426 6.98706V5.66535C52.7426 5.53479 52.7602 5.44469 52.8019 5.39355C52.8417 5.34346 52.9104 5.31413 53.0056 5.31307V5.28164ZM48.969 7.3109C49.0933 7.40025 49.2596 7.50795 49.4536 7.5639C49.6054 7.61159 49.7331 7.63249 49.8566 7.63249C49.9285 7.63249 49.9981 7.62527 50.0682 7.60963C49.9735 7.60015 49.8898 7.57759 49.8164 7.54345C49.5426 7.42071 49.3039 7.23374 49.0444 7.01624C48.9557 6.94253 48.87 6.86687 48.7729 6.77512L48.7571 6.76113L48.7611 6.76008L47.9661 6.0283L47.9775 6.01642L48.8179 5.26479C48.9042 5.18402 49.0028 5.11618 49.1074 5.06699C49.2168 5.01796 49.3119 4.99133 49.3938 4.99133H49.5102V4.95117H48.5261V4.99479C48.6375 5.01796 48.6959 5.06805 48.6959 5.14416C48.6959 5.20116 48.6487 5.27066 48.55 5.35895L47.6577 6.15962L48.1965 6.65569C48.4012 6.85123 48.678 7.10152 48.969 7.3109Z" fill="#232A42"/>
<path d="M47.7125 5.08603C47.7583 5.02601 47.8334 4.99503 47.9457 4.99157V4.95141H47.0107V4.99157C47.1292 4.99503 47.2077 5.02601 47.2507 5.08332C47.2943 5.14063 47.317 5.24457 47.317 5.39814V6.92442C47.317 7.07108 47.2925 7.17411 47.2492 7.23578C47.2047 7.29489 47.1239 7.32483 47.0107 7.32678V7.36845H47.9457V7.32678C47.8313 7.32468 47.7539 7.29474 47.7088 7.23398C47.6664 7.17396 47.6445 7.07107 47.6445 6.92427V5.39814C47.6445 5.25089 47.6662 5.14725 47.7125 5.08603ZM50.4645 2.71517H49.7965V2.74149C49.8788 2.74149 49.9351 2.763 49.9669 2.80391C50 2.84618 50.0143 2.91853 50.0143 3.03104V4.12021C50.0143 4.2267 49.9998 4.30221 49.9669 4.34598C49.9336 4.3875 49.8764 4.4081 49.7965 4.4081V4.43428H50.4645V4.4081C50.3832 4.4081 50.3293 4.38765 50.295 4.34598C50.2605 4.30221 50.2437 4.2267 50.2437 4.12021V3.03104C50.2437 2.92094 50.2605 2.84723 50.295 2.80587C50.3293 2.76285 50.3832 2.74149 50.4645 2.74149V2.71517ZM52.1277 4.07914C52.0865 4.20158 52.0399 4.27905 51.9919 4.31725C51.9442 4.35471 51.858 4.37622 51.7364 4.37622H51.4578C51.3669 4.37622 51.309 4.36223 51.2768 4.33636C51.2409 4.30973 51.2255 4.26401 51.2255 4.19421V3.02864C51.2255 2.92665 51.245 2.85506 51.2786 2.80843C51.3139 2.76451 51.3671 2.74164 51.4392 2.74164V2.71532H50.7795V2.74164C50.8603 2.74164 50.9131 2.75969 50.9472 2.8C50.9805 2.83821 50.9973 2.90605 50.9973 3.00457V4.10577C50.9973 4.21121 50.9805 4.29063 50.9439 4.33831C50.9088 4.38133 50.853 4.4078 50.7794 4.4078V4.43398H52.0461L52.1584 4.07899H52.1277V4.07914ZM49.7429 2.45044V2.4375H49.3524L48.6868 4.05583L48.6776 4.02785L48.132 2.72795C48.132 2.72239 48.1308 2.72119 48.1308 2.71848L48.0152 2.4375H47.4208V2.473C47.5043 2.4751 47.6661 2.49421 47.7156 2.53708C47.7648 2.57859 47.8202 2.6735 47.8863 2.82828L48.5713 4.45895H48.6164L49.2709 2.87401C49.3936 2.58626 49.5422 2.4539 49.7429 2.45044ZM53.581 4.07914C53.5395 4.19842 53.4956 4.27905 53.4474 4.31725C53.3976 4.35471 53.3122 4.37622 53.193 4.37622H52.9353C52.846 4.37622 52.7862 4.36223 52.7541 4.33636C52.7201 4.30973 52.7037 4.26401 52.7037 4.19421V3.02864C52.7037 2.92665 52.7219 2.85506 52.7568 2.80843C52.7921 2.76451 52.8428 2.74164 52.9189 2.74164V2.71532H52.2577V2.74164C52.3384 2.74164 52.3925 2.75969 52.4257 2.8C52.4566 2.83821 52.4746 2.9077 52.4746 3.00457V4.10577C52.4746 4.21121 52.4554 4.29063 52.4223 4.33831C52.3867 4.38133 52.3321 4.40585 52.2575 4.4078V4.43398H53.503L53.6106 4.07899H53.581V4.07914ZM54.8125 3.73755L54.992 4.22069C55.0035 4.24686 55.0065 4.27153 55.0065 4.29258C55.0065 4.36554 54.9526 4.40585 54.8408 4.40795V4.43413H55.4931V4.40795C55.4179 4.40795 55.3625 4.39472 55.326 4.36839C55.2892 4.33982 55.2532 4.28311 55.2196 4.19105L54.6663 2.69471H54.485L53.9574 4.12622C53.915 4.23392 53.8736 4.30763 53.8321 4.34343C53.7926 4.37622 53.7422 4.39637 53.6715 4.40795V4.43413H54.1429V4.40795C54.0152 4.40389 53.9889 4.33846 53.9889 4.28311C53.9889 4.24159 54.0063 4.17782 54.0409 4.08471L54.1744 3.72732H54.8103L54.8125 3.73755ZM54.2017 3.64474L54.4891 2.85701L54.5 2.8886L54.7799 3.64459H54.2017V3.64474Z" fill="#232A42"/>
</g>
<defs>
<clipPath id="clip0">
<rect width="64" height="28" fill="white" transform="translate(0.543945)"/>
</clipPath>
</defs>
</svg>
